<?xml version="1.0" standalone="no"?>
<!DOCTYPE svg PUBLIC "-//W3C//DTD SVG 1.1//EN" "http://www.w3.org/Graphics/SVG/1.1/DTD/svg11.dtd" >
<svg xmlns="http://www.w3.org/2000/svg">
<metadata></metadata>
<defs>
<font id="p22_johnston_undergroundRg" horiz-adv-x="792" >
<font-face units-per-em="2048" ascent="1536" descent="-512" />
<missing-glyph horiz-adv-x="569" />
<glyph unicode="&#x28;C&#x29;" horiz-adv-x="1544" d="M82 676q0 133 43.5 257.5t128.5 219.5q103 117 239.5 176.5t290.5 59.5q57 0 119 -9q129 -20 245.5 -100t203.5 -203q110 -153 110 -385q0 -192 -78 -342q-88 -172 -254.5 -275.5t-359.5 -103.5q-203 0 -377.5 114.5t-253.5 301.5q-57 132 -57 289zM293 680 q0 -100 35 -193q40 -108 138.5 -192.5t209.5 -106.5q39 -8 88 -8q187 0 336 133q74 67 113.5 165t39.5 204q0 110 -36 201q-32 87 -108 161t-163 105q-85 31 -174 31q-100 0 -191 -38t-157 -110q-64 -69 -97.5 -161.5t-33.5 -190.5zM440 672q0 15 4 47q13 88 63 162.5 t130 107.5q73 31 156 31q111 0 213 -47l8 -12q0 -99 -2 -175q-14 8 -33.5 20.5t-33 20.5t-25.5 13q-62 30 -127 30q-74 0 -121 -41q-70 -64 -70 -149q0 -15 4 -39q9 -56 55.5 -99.5t104.5 -54.5q12 -2 33 -2q87 0 192 84l25 6q0 -21 -1 -60t-1 -58q0 -9 1 -28t1 -28 q-95 -65 -225 -65q-104 0 -181 47q-80 47 -125 123.5t-45 165.5z" />
<glyph unicode="&#x28;R&#x29;" horiz-adv-x="1091" d="M82 909q0 190 117 322q68 77 160.5 117.5t195.5 40.5q29 0 80 -7q85 -12 163.5 -66t137.5 -136q74 -104 74 -260q0 -126 -52 -230q-60 -116 -171.5 -185t-241.5 -69q-137 0 -253.5 76.5t-170.5 202.5q-39 88 -39 194zM223 911q0 -65 25 -129q26 -73 92.5 -129.5 t140.5 -70.5q32 -7 60 -7q124 0 225 91q51 44 77.5 110t26.5 137t-24 136q-23 59 -73.5 108.5t-108.5 69.5q-53 20 -117 20q-145 0 -236 -98q-88 -97 -88 -238zM389 694v465l29 4h78q74 0 123.5 -21.5t70.5 -82.5q6 -18 6 -64q0 -37 -37 -88q-12 -15 -30 -26l135 -179 l-4 -12h-117l-10 4q-70 93 -115 156h-18v-158l-21 -2h-71zM500 963q2 0 7.5 -1t8.5 -1q41 0 45 6q17 17 17 39q0 12 -10.5 25t-22.5 18q-16 4 -45 4v-90z" />
<glyph unicode="&#x28;TM&#x29;" horiz-adv-x="1099" d="M29 1272v67q0 4 2.5 7.5t4.5 5.5l3 2h518q8 -4 8 -8q25 -28 71.5 -83t79.5 -96l34 -41l178 220q8 8 12 8h70q12 0 12 -15v-514q0 -12 -14 -12h-68q-14 0 -14 12v377q-110 -138 -170 -205h-13l-176 211v-383q0 -12 -12 -12h-70q-14 0 -14 12v435h-182v-435q0 -12 -15 -12 h-67q-14 0 -14 12v435h-152q-12 0 -12 12z" />
<glyph unicode="&#xfb01;" horiz-adv-x="845" d="M41 721v178q0 8 8 8q146 0 146 4v37q0 137 40 232.5t142 148.5q73 37 184 37q80 0 182 -23v-190q0 -8 -4 -8t-6 2q-80 37 -151 37q-62 0 -105 -27q-52 -34 -71 -83.5t-19 -121.5v-34q0 -11 10 -11h340q3 0 4.5 -1.5t1.5 -3.5v-1v-895q-2 -6 -6 -6h-180q-8 4 -8 8l2 707 q-29 0 -82.5 -1t-73.5 -1q-8 -2 -8 -8v-699l-6 -6h-182l-4 6v707h-148q-6 0 -6 8z" />
<glyph unicode="&#xfb02;" horiz-adv-x="1204" d="M41 721v178q0 8 8 8h144l2 41q3 69 11.5 120t27.5 103t54.5 91t88.5 67q73 37 184 37q64 0 156.5 -16t148.5 -37q-2 -466 -2 -776v-64t0.5 -58.5t0.5 -50.5v-42t0.5 -31.5t0.5 -20.5v-8q7 -40 34.5 -78t70.5 -45q24 -4 35 -4q83 0 172 78q6 -2 6 -6v-201 q-91 -49 -193 -49q-123 0 -207 63q-49 36 -77.5 103t-28.5 139v451h-283q-8 -2 -8 -8v-699l-6 -6h-182l-4 6v707h-148q-6 0 -6 8zM387 918q0 -11 10 -11h281v262q-46 15 -96 15q-66 0 -105 -27q-52 -34 -71 -83.5t-19 -121.5v-34z" />
<glyph horiz-adv-x="2048" />
<glyph horiz-adv-x="2048" />
<glyph unicode="&#xd;" horiz-adv-x="2048" />
<glyph unicode=" "  horiz-adv-x="569" />
<glyph unicode="&#x09;" horiz-adv-x="569" />
<glyph unicode="&#xa0;" horiz-adv-x="569" />
<glyph unicode="!" horiz-adv-x="456" d="M102 104q125 125 127 125q5 0 7 -2l116 -118q0 -7 2 -9q-18 -17 -38.5 -37.5t-45.5 -46t-39 -39.5h-10q-111 113 -117 117q-2 2 -2 10zM135 1153v205h193v-205q-4 -154 -14.5 -362.5t-18.5 -340.5l-8 -131h-115q-37 485 -37 834z" />
<glyph unicode="&#x22;" horiz-adv-x="749" d="M37 895q0 4 8 4q61 36 79.5 94t18.5 148q0 33 2 112t2 90l-2 9q195 0 195 -2v-166q-5 -81 -30 -138.5t-85 -97.5q-85 -56 -184 -59q0 1 -2 3t-2 3zM375 952v11q121 54 121 235v154q192 0 192 -2v-117q-2 -89 -32 -146t-103 -92q-91 -43 -170 -43h-8z" />
<glyph unicode="#" horiz-adv-x="1126" d="M82 444v179q0 6 6 6h195v196h-193q-8 0 -8 9v178q0 6 6 6h195v184q0 6 8 6h176q8 0 8 -6v-184h195v184q0 6 8 6h178q6 0 6 -6v-184h174q8 0 8 -8v-176q0 -9 -6 -9h-176v-196h174q8 0 8 -8v-177q0 -8 -6 -8h-176v-194q0 -9 -8 -9h-176q-8 0 -8 7v196h-195v-194q0 -9 -8 -9 h-178q-6 0 -6 7v196h-193q-8 0 -8 8zM475 629h195v196h-195v-196z" />
<glyph unicode="$" horiz-adv-x="905" d="M82 872q0 60 24 112.5t72 86.5q68 52 168 68v207q0 8 8 8h178q9 0 9 -6v-211q108 -20 184 -64v-203q-20 7 -62 25.5t-63 26.5q-114 43 -182 43q-51 0 -96 -23q-20 -9 -33 -26t-13 -35q0 -14 9 -23q29 -41 78.5 -58.5t121.5 -25t103 -16.5q87 -26 155 -85.5t78 -140.5 q2 -14 2 -40q0 -82 -38 -150.5t-109 -99.5t-135 -39v-193q0 -8 -9 -8h-178q-6 0 -6 6v191q-141 16 -246 71l-6 11v198q20 -7 135 -53q118 -49 230 -49q19 0 55 4q72 7 102 68q7 14 7 24q0 24 -19 47q-34 38 -82 54.5t-114.5 25.5t-96.5 18q-78 25 -139.5 71.5t-81.5 111.5 q-10 29 -10 71z" />
<glyph unicode="%" horiz-adv-x="1482" d="M61 1040q0 129 91.5 219.5t220.5 90.5q128 0 218.5 -90.5t90.5 -219.5t-90.5 -220t-218.5 -91q-129 0 -220.5 91t-91.5 220zM164 12l893 1340h225l-901 -1352h-215zM217 1040q0 -64 45.5 -109.5t110.5 -45.5t110 45.5t45 109.5q0 65 -45.5 110.5t-109.5 45.5 q-65 0 -110.5 -46t-45.5 -110zM801 311q0 128 91 219t220 91t219 -91t90 -219q0 -129 -90 -220t-219 -91t-220 91t-91 220zM956 311q0 -64 45.5 -109.5t110.5 -45.5t110.5 45.5t45.5 109.5q0 65 -46 110.5t-110 45.5t-110 -45.5t-46 -110.5z" />
<glyph unicode="&#x26;" horiz-adv-x="1355" d="M61 389q0 84 32 162.5t91 134.5q48 44 103 62q-10 6 -54 61q-71 89 -71 223q0 92 37 154q50 88 134 139t183 51q24 0 74 -8q139 -27 217 -135q65 -92 65 -211q0 -67 -20 -123q-24 -67 -87.5 -124t-135.5 -83q4 -10 92.5 -107.5t103.5 -111.5q20 22 44.5 58t38.5 59 t42 72.5t33 58.5h225q6 0 6 -6q0 -8 -8 -21q-165 -251 -237 -360q17 -18 169.5 -169t155.5 -153q-2 -12 -16 -12h-268l-11 11t-22.5 23.5t-29 30t-32.5 32t-30.5 28.5t-25 20.5t-13.5 6.5q-150 -177 -361 -177q-45 0 -88 9q-100 21 -183 87.5t-122 161.5q-31 76 -31 156z M283 389q0 -35 8 -59q12 -45 51 -82t84 -49q37 -11 59 -11q115 0 207 123q1 0 -65 71t-132.5 142t-66.5 72q-3 -2 -15.5 -8t-20.5 -10.5t-20.5 -14t-23.5 -20.5q-65 -62 -65 -154zM383 1028q0 -88 90 -182q45 8 94 41.5t72 75.5q16 32 16 69q0 41 -20 70q-41 59 -119 59 q-27 0 -41 -4q-32 -7 -56 -32.5t-32 -57.5q-4 -14 -4 -39z" />
<glyph unicode="'" horiz-adv-x="405" d="M41 930q29 17 49 33q62 49 62 161v219q0 9 8 9h178q6 0 6 -6v-224q0 -32 -17 -73.5t-46 -67.5q-74 -63 -195 -63q-27 0 -41 2q-4 2 -4 10z" />
<glyph unicode="(" horiz-adv-x="581" d="M82 600q0 521 221 936h201q-12 -34 -45 -102q-199 -423 -199 -783q0 -81 8 -149q5 -388 236 -809l9 -11q9 -12 9 -16q0 -2 -10 -2q-29 -2 -92 -2h-103q-167 280 -215 635q-20 143 -20 303z" />
<glyph unicode=")" horiz-adv-x="583" d="M61 1532q0 4 9 4h188q68 -100 112 -221t81 -275q49 -212 49 -446q0 -433 -158 -799q-41 -96 -70 -137q-18 0 -55 -1t-55 -1q-45 0 -88 6q-4 2 -4 8q0 9 4 15q243 412 243 909q0 123 -14 235q-50 373 -229 676q-13 23 -13 27z" />
<glyph unicode="*" horiz-adv-x="800" d="M57 1118l6 12q59 90 78 125h9q24 -20 65 -56t76 -64.5t69 -51.5q5 0 5 9q-16 76 -39 254q0 6 6 6h143q8 0 8 -9q-32 -228 -39 -253q0 -1 -1 -3.5t-1 -3.5q0 -6 4 -6l7 2l200 164q4 4 6 4q3 0 7 -8q71 -127 71 -129l-6 -8q-172 -71 -250 -98q26 -12 119.5 -49.5 t132.5 -57.5l3 -2q3 -2 3 -4q0 -4 -4 -8l-71 -127q-3 -4 -7 -4t-6 2l-205 174q-8 0 -8 -6l51 -260q0 -5 -6 -5t-44.5 -2t-61.5 -2q-26 0 -58 4q-4 0 -6 2.5t-2 4.5v2q43 248 47 262q0 4 -4 4t-6 -2l-205 -170q-2 -2 -6 -2t-4 4l-74 137q3 0 7 2l256 105q-202 75 -259 104 q-6 3 -6 8z" />
<glyph unicode="+" d="M82 530v177l6 8h205v203l6 6h180l8 -4v-205h215l9 -6v-181l-4 -8h-220v-215q0 -8 -8 -8h-178l-8 6v217h-201q-10 0 -10 10z" />
<glyph unicode="," horiz-adv-x="405" d="M41 -193q3 2 49 33q62 51 62 162v180q0 6 8 6h178q6 0 6 -6v-182q0 -32 -17 -73.5t-46 -67.5q-76 -64 -189 -64q-19 0 -47 4q-4 0 -4 8z" />
<glyph unicode="-" d="M82 365v176l6 6h614l9 -4v-183l-4 -6h-615q-10 0 -10 11z" />
<glyph unicode="." horiz-adv-x="315" d="M61 6v180q0 7 9 7h178q6 0 6 -7v-178q0 -8 -8 -8h-178q-7 0 -7 6z" />
<glyph unicode="/" horiz-adv-x="479" d="M18 -55l2 8l295 1399h140q2 -7 4 -9q-41 -236 -146.5 -711.5t-144.5 -688.5l-10 -4h-133q-7 0 -7 6z" />
<glyph unicode="0" horiz-adv-x="1050" d="M82 641v16q1 76 5 133.5t13.5 128.5t29 127.5t48.5 112.5t74.5 101t105.5 77q71 39 164 39q83 0 159 -33.5t126 -95.5q162 -208 162 -563q0 -41 -4 -123q-6 -90 -25.5 -171t-55.5 -160.5t-98.5 -141.5t-146.5 -96q-61 -23 -121 -23q-122 0 -203 66q-67 55 -114.5 125 t-72.5 149.5t-35.5 159t-10.5 172.5zM276 647q0 -295 146 -444q33 -33 96 -33q24 0 45 6q78 23 117 105q86 189 86 413v15q-3 230 -102 397q-22 36 -58 58t-78 22q-10 0 -30 -4q-177 -41 -209 -346q-13 -132 -13 -189z" />
<glyph unicode="1" horiz-adv-x="571" d="M184 10v1198q173 134 183 144q9 6 12 6t5 -1.5t2 -2.5l1 -2v-1346l-8 -6h-189z" />
<glyph unicode="2" horiz-adv-x="950" d="M80 945v18q0 25 1 103.5t1 107.5v40q0 4 1.5 8t5.5 9.5t7.5 9.5t11 11.5t11.5 11t13 12.5t13 12q55 49 128 76t149 27q63 0 137 -23q147 -51 203 -160q55 -104 55 -211q0 -82 -33.5 -174t-74.5 -160t-100.5 -162.5t-88.5 -152.5q-8 -14 -92 -155h428l12 -11v-172l-10 -10 h-752q-8 0 -8 8q0 5 5.5 15.5t5.5 11.5q23 39 116 200.5t132.5 230.5t107 191.5t119.5 223.5q30 62 30 125q0 72 -34 114q-62 80 -160 80q-28 0 -55 -6q-146 -34 -283 -260z" />
<glyph unicode="3" horiz-adv-x="1013" d="M82 1159v193h829q13 0 13 -6l-9 -23q-14 -26 -121.5 -213.5t-160.5 -288.5q97 -26 179.5 -102.5t105.5 -169.5q14 -57 14 -127q0 -198 -127 -322q-128 -125 -326 -125q-97 0 -184 35q-113 46 -199 168q-4 4 -4 8q0 5 2 7q88 106 125 151q10 -11 25 -29.5t26 -29.5 q114 -105 232 -105q26 0 53 6q51 9 93.5 43.5t68.5 83.5q20 45 20 95q0 87 -51 147q-92 102 -248 102q-70 0 -129 -20q-2 -2 -6 -2q-3 0 -5 1.5t-2 3.5l-1 1q285 504 289 514l-6 4h-496z" />
<glyph unicode="4" horiz-adv-x="1191" d="M20 389l3 17q99 114 311 353.5t369.5 417t164.5 187.5q4 0 7 -6t3 -12l1 -7v-757h286l6 -9v-176l-8 -8h-276l-8 -4v-375q-1 -10 -5 -10h-184q-2 0 -3 2t-1 4v2l-4 381h-662zM432 582h254v288q0 9 -4 9q-1 0 -8 -7z" />
<glyph unicode="5" horiz-adv-x="1017" d="M82 172q88 92 133 147q118 -153 254 -153q29 0 45 4q64 12 118 67t66 121q4 28 4 48q0 92 -57 155q-85 94 -250 94q-78 0 -176 -26l-10 10l57 713h664l6 -9l-123 -196h-346l-12 -8l-23 -293l6 -8q23 4 66 4q101 0 188.5 -48t151.5 -135q78 -107 78 -256q0 -114 -45 -200 q-59 -112 -167 -173t-241 -63q-107 0 -206.5 51.5t-178.5 141.5z" />
<glyph unicode="6" horiz-adv-x="1042" d="M82 508q0 213 94 393q78 146 163 257.5t198 193.5q24 0 71.5 1t69.5 1q47 0 70 -2q2 -4 2 -6q0 -4 -5 -9q-296 -285 -401 -542l8 -7q81 35 170 35q87 0 170 -33t142 -94q127 -133 127 -307q0 -11 -5 -61q-13 -109 -94.5 -203.5t-187.5 -130.5q-64 -21 -129 -21 q-91 0 -177.5 38.5t-152.5 107.5q-133 144 -133 389zM285 465q0 -145 88 -225q76 -72 164 -72q31 0 55 8q45 12 86 46.5t61 76.5q21 51 21 98q0 80 -43 142q-71 98 -201 98q-58 0 -117.5 -22.5t-105.5 -61.5q-8 -39 -8 -88z" />
<glyph unicode="7" horiz-adv-x="976" d="M82 1165v178l6 9h856q12 0 12 -4q0 -9 -6 -15l-653 -1333h-211q379 775 559 1159l-151 -1q-152 -1 -244 -1q-45 0 -100.5 1t-57.5 1z" />
<glyph unicode="8" horiz-adv-x="1005" d="M82 385q0 108 69.5 205t174.5 158q-11 10 -25.5 21t-21.5 17q-123 91 -123 244q0 42 12 88q28 100 118 175.5t195 84.5q5 0 15.5 1t15.5 1q102 0 186.5 -51t126.5 -141q29 -66 29 -133q0 -131 -82 -219q-10 -10 -25.5 -28t-28.5 -30.5t-32 -29.5q101 -60 166.5 -142.5 t69.5 -179.5v-27q0 -209 -183 -350q-100 -78 -245 -78q-82 0 -152 27q-111 42 -185.5 151.5t-74.5 235.5zM295 381q0 -32 8 -59q11 -46 49.5 -85t87.5 -51q24 -8 58 -8q86 0 155 66q58 55 58 145q0 17 -4 49q-4 23 -16.5 45.5t-23.5 37t-38 37t-36.5 29t-44 30t-36.5 24.5 q-17 -7 -33 -16t-39 -24t-30 -19q-54 -35 -84.5 -88t-30.5 -113zM369 1034q0 -4 1 -11.5t1 -10.5q3 -25 16.5 -48.5t37 -45.5t40.5 -35t43 -31q60 28 102 82q35 54 35 100q0 37 -16 70q-17 34 -48.5 52t-68.5 18q-67 0 -111 -50q-32 -32 -32 -90z" />
<glyph unicode="9" horiz-adv-x="1040" d="M82 973q0 19 4 59q10 101 85.5 191.5t174.5 128.5q79 30 160 30q115 0 214 -56t159 -157q79 -132 79 -317q0 -121 -32.5 -238t-89.5 -208q-176 -289 -336 -406q-25 -2 -88 -2l-127 2l-6 12q272 240 411 510q3 9 8 20t8 17.5t3 9.5q0 6 -7 6q-1 0 -3.5 -1t-4.5 -1 q-84 -41 -180 -41q-153 0 -264 91q-168 136 -168 350zM289 942q0 -66 41.5 -124t103.5 -83q46 -18 96 -18q120 0 228 90q0 7 1 20.5t1 20.5q0 110 -41 203q-20 43 -60 76t-86 47q-38 10 -69 10q-56 0 -101 -25q-107 -59 -114 -205v-12z" />
<glyph unicode=":" horiz-adv-x="387" d="M96 625v178q0 8 8 8h177q8 0 8 -8v-178q0 -7 -8 -7h-179q-6 0 -6 7zM98 6v180q0 7 8 7h177q8 0 8 -7v-178q0 -8 -8 -8h-179q-6 0 -6 6z" />
<glyph unicode=";" horiz-adv-x="389" d="M43 -193q3 2 49 33q62 51 62 162v180q0 6 8 6h178q6 0 6 -6v-182q0 -32 -17.5 -73.5t-47.5 -67.5q-73 -64 -187 -64q-19 0 -47 4q-4 0 -4 8zM154 625v178q0 8 8 8h178q6 0 6 -8v-178q0 -7 -8 -7h-176q-8 0 -8 7z" />
<glyph unicode="&#x3c;" horiz-adv-x="954" d="M82 369v176l790 329v-202l-532 -209l532 -217v-199z" />
<glyph unicode="=" horiz-adv-x="794" d="M82 338v176l6 6h614l7 -4v-182l-2 -6h-615q-10 0 -10 10zM84 723v176l8 8h615l6 -4v-182l-4 -6h-615q-10 0 -10 8z" />
<glyph unicode="&#x3e;" horiz-adv-x="954" d="M82 47v199l532 217l-532 209v202l790 -329v-176z" />
<glyph unicode="?" horiz-adv-x="811" d="M41 1147q30 94 122 158.5t197 70.5q7 0 20.5 1t20.5 1q218 0 306 -157q43 -76 43 -179q0 -140 -78 -227q-30 -34 -63 -65t-83 -74t-69 -60q-27 -24 -27 -71q0 -24 6 -39q17 -46 72 -86l-117 -127q-50 24 -88 76q-65 84 -65 172q0 30 8 61q14 52 51 97.5t101 101.5t85 78 q76 76 76 147q0 43 -22 86q-38 70 -140 70q-17 0 -53 -4q-51 -8 -94.5 -50t-65.5 -94q-111 84 -143 113zM264 113l123 123q2 4 6 4q2 0 6 -4l117 -119q-2 -3 -2 -11l-121 -120h-10q-111 112 -117 116q-2 2 -2 11z" />
<glyph unicode="@" horiz-adv-x="1632" d="M82 668q0 107 29 198q60 202 201.5 339.5t344.5 189.5q87 20 166 20q26 0 76 -4q402 -47 578 -375q71 -134 71 -280q0 -124 -51.5 -229t-130.5 -165q-105 -77 -219 -77q-64 0 -114 21.5t-70 51.5q-10 -6 -29.5 -21t-20.5 -15q-77 -41 -163 -41q-61 0 -105 20 q-57 34 -93 87.5t-36 115.5q0 57 32.5 106.5t86.5 83.5q106 67 315 78q2 16 2 41q0 30 -14 49q-48 68 -141 68q-35 0 -62 -8q-23 -6 -49.5 -16.5t-44 -20t-47.5 -26t-43 -23.5q29 91 70 172q98 43 198 43q117 0 189 -58q47 -38 75 -96q17 -35 17 -92q0 -27 -4 -78t-4 -72 v-14q-7 -33 -7 -70q0 -112 62 -112q98 0 168.5 76t70.5 192q0 101 -59 207q-75 131 -213 211t-291 80q-52 0 -112 -13q-160 -35 -272.5 -143t-157.5 -266q-17 -55 -17 -121q0 -122 56.5 -241.5t148.5 -198.5q166 -140 401 -140q122 0 279 35q-9 -17 -43.5 -100.5 t-36.5 -91.5q-85 -23 -186 -23q-169 0 -332 65.5t-272 180.5q-95 101 -146 232t-51 268zM670 500q0 -37 32 -58q37 -24 76 -24q25 0 52 7.5t62.5 21.5t49.5 18v188q-18 -4 -71.5 -11t-88 -17.5t-65.5 -30.5q-44 -30 -47 -94z" />
<glyph unicode="A" horiz-adv-x="1306" d="M18 4q0 1 1 3t1 3l537 1333q0 3 2.5 5t4.5 3l3 1h174q9 -5 11 -9l534 -1333q0 -10 -4 -10h-199q-4 0 -4 4l-127 320h-596q-129 -324 -131 -324h-200q-7 0 -7 4zM434 516h440l-221 551z" />
<glyph unicode="B" horiz-adv-x="1153" d="M143 0v1343l7 9h321q52 0 90.5 -2.5t84.5 -11.5t81 -25t70 -44t61 -67q57 -86 57 -188q0 -55 -22 -107q-35 -83 -92 -121q-10 -7 -10 -10t8 -6q92 -24 165.5 -106.5t96.5 -178.5q10 -52 10 -90q0 -88 -40 -166.5t-113 -134.5q-116 -92 -304 -92l-309 -2h-162zM336 197 h215q51 0 76 2q127 7 182 92q31 51 31 106q0 46 -21 111q-13 35 -44.5 61.5t-74.5 41t-88.5 21.5t-93.5 7h-182v-442zM336 829q2 0 35.5 -1t54.5 -1q9 0 23 1t16 1q70 4 98 11q58 13 94 57q33 42 33 96q0 27 -6 54q-28 114 -240 114q-22 0 -53 -1t-41 -1h-14v-330z" />
<glyph unicode="C" horiz-adv-x="1386" d="M82 672q0 181 79 334.5t230 259.5q165 114 408 114q125 0 243 -32t209 -93l13 -16v-197q-5 -8 -11 -8q-1 0 -45 21q-90 56 -198 89.5t-215 33.5q-158 0 -279 -78q-114 -74 -173.5 -187.5t-59.5 -248.5q0 -34 2 -50q12 -133 110.5 -249.5t229.5 -163.5q83 -29 168 -29 q116 0 227.5 47t236.5 131q3 -6 3 -14v-211q-94 -71 -218.5 -109.5t-253.5 -38.5q-173 0 -315 68q-163 78 -269.5 232.5t-119.5 332.5q-2 20 -2 62z" />
<glyph unicode="D" horiz-adv-x="1390" d="M143 6v1337q0 9 9 9h471q113 0 197 -25t167 -78q148 -91 235 -242t87 -329q0 -138 -54 -263.5t-145 -216.5t-217 -144.5t-264 -53.5h-479q-7 0 -7 6zM336 193h297q132 0 243.5 65t176.5 176.5t65 243.5q0 131 -68 242.5t-182.5 175t-246.5 63.5h-285v-966z" />
<glyph unicode="E" horiz-adv-x="1103" d="M143 6v1337q3 7 9 7h829q8 0 8 -7v-178q0 -8 -8 -8h-629l-16 -2v-324h477q6 0 6 -6v-178q0 -8 -10 -8h-467q-6 -2 -6 -10v-439h680q6 0 6 -6v-178q0 -8 -8 -8h-860z" />
<glyph unicode="F" horiz-adv-x="1030" d="M143 6v1340q0 6 9 6h829q8 0 8 -6v-179q0 -8 -8 -8h-629l-16 -4v-321h477q6 0 6 -7v-178q0 -8 -10 -8h-459q-14 -6 -14 -14v-619q0 -8 -8 -8h-176q-9 0 -9 6z" />
<glyph unicode="G" horiz-adv-x="1439" d="M90 670q0 97 29 207q44 165 174.5 299t292.5 180q98 28 229 28q69 0 127 -6q176 -17 346 -112v-232q-107 69 -232.5 111.5t-246.5 42.5q-167 0 -289 -84q-111 -76 -165 -189.5t-54 -250.5q0 -44 6 -91q17 -135 132.5 -252.5t252.5 -150.5q60 -14 127 -14q156 0 301 82 v327l-8 8h-252l-2 5v182h455l4 -6q0 -3 -0.5 -61.5t-1 -147.5t-0.5 -168q0 -47 1 -131t1 -115q-112 -93 -266 -131q-135 -33 -246 -33q-169 0 -314.5 64t-248.5 194q-152 190 -152 445z" />
<glyph unicode="H" horiz-adv-x="1388" d="M143 8v1338q0 8 9 8h178q6 0 6 -8l2 -9v-481q2 -16 16 -18h695l4 6v504q2 6 8 6h180q4 0 4 -4v-1342q0 -6 -8 -6h-176q-8 0 -8 6v637h-709l-8 -8v-629q0 -8 -8 -8h-176q-9 0 -9 8z" />
<glyph unicode="I" horiz-adv-x="479" d="M143 6v1337q0 9 9 9h178q6 0 6 -6v-1338q0 -8 -8 -8h-178q-7 0 -7 6z" />
<glyph unicode="J" horiz-adv-x="919" d="M61 223q32 16 92 42.5t76 33.5q3 -40 30 -76t65 -55q32 -16 73 -16q66 0 109 30q50 33 64 89t14 141v931l10 9h170q7 0 8.5 -3t3.5 -12v-985q0 -223 -155 -327q-89 -62 -224 -62q-118 0 -198 51q-59 37 -97 92t-41 117z" />
<glyph unicode="K" horiz-adv-x="1292" d="M143 6v1337q0 9 9 9h178q6 0 6 -6v-457l524 442q8 8 21 8h266q6 0 6 -8q0 -4 -4 -8l-655 -553l757 -756q0 -1 1 -4t1 -4q0 -6 -4 -6h-250q-8 0 -16 8q0 -1 -1 -1q-10 0 -152 150q-152 159 -311.5 324.5t-176.5 165.5q-2 0 -3.5 -2.5t-2.5 -4.5v-3v-629q0 -8 -8 -8h-176 q-9 0 -9 6z" />
<glyph unicode="L" horiz-adv-x="1015" d="M143 6v1340q0 6 9 6h178q6 0 6 -6v-1153h633q6 0 6 -7v-178q0 -8 -8 -8h-817q-7 0 -7 6z" />
<glyph unicode="M" horiz-adv-x="1638" d="M143 6v1337q0 9 9 9h180q4 0 4 -6q75 -87 197.5 -236.5t208.5 -255.5l85 -106q316 396 476 595q0 9 8 9h178q6 0 6 -6v-1338q0 -8 -8 -8h-176q-8 0 -8 6v1055q-86 -112 -229.5 -291t-248.5 -293q-275 342 -489 596v-1065q0 -8 -8 -8h-176q-9 0 -9 6z" />
<glyph unicode="N" horiz-adv-x="1490" d="M143 6v1337q0 9 9 9h178q10 -1 16 -9l809 -1038v1038q0 9 8 9h176q9 0 9 -9v-1335q0 -8 -9 -8h-194q-6 0 -8 4l-801 1032v-1028q0 -8 -8 -8h-176q-9 0 -9 6z" />
<glyph unicode="O" horiz-adv-x="1544" d="M82 676q0 133 43.5 257.5t128.5 219.5q103 117 239.5 176.5t290.5 59.5q57 0 119 -9q129 -20 245.5 -100t203.5 -203q110 -153 110 -385q0 -192 -78 -342q-88 -172 -254.5 -275.5t-359.5 -103.5q-203 0 -377.5 114.5t-253.5 301.5q-57 132 -57 289zM293 680 q0 -100 35 -193q40 -108 138.5 -192.5t209.5 -106.5q39 -8 88 -8q187 0 336 133q74 67 113.5 165t39.5 204q0 110 -36 201q-32 87 -108 161t-163 105q-85 31 -174 31q-100 0 -191 -38t-157 -110q-64 -69 -97.5 -161.5t-33.5 -190.5z" />
<glyph unicode="P" horiz-adv-x="1079" d="M143 10v1333q0 3 1.5 5t3.5 3l2 1h495q164 0 279 -133q94 -110 94 -283q0 -107 -37 -191q-53 -118 -162.5 -166t-267.5 -53q-20 -2 -82 -2l-129 2l-4 -8v-510l-4 -8h-182q-7 0 -7 10zM336 719h207q91 7 154 30.5t94 79.5q24 47 24 103q0 76 -39 137q-35 55 -100 73.5 t-160 18.5q-25 0 -74.5 -1t-72.5 -1h-33v-440z" />
<glyph unicode="Q" horiz-adv-x="1601" d="M82 641v21q0 134 50 261.5t143.5 228t216.5 155.5q145 65 319 65q144 0 275.5 -51t220.5 -150q93 -103 141.5 -235t48.5 -272q0 -143 -51 -271q-23 -61 -76 -139l150 -127q-3 -5 -35 -43.5t-63 -74.5l-31 -36l-160 136q-85 -73 -199.5 -109.5t-238.5 -36.5 q-166 0 -316 64q-179 76 -284 245.5t-111 368.5zM299 645q5 -148 85 -272t214 -178q93 -41 211 -41q163 0 262 86l-117 102q16 22 50 62.5t60 69.5l26 30q73 -66 122 -101q74 104 74 265q0 112 -37 213q-28 73 -89.5 136t-139.5 105q-98 52 -223 52q-118 0 -211 -46 q-133 -64 -210 -191t-77 -275v-17z" />
<glyph unicode="R" horiz-adv-x="1200" d="M143 12v1338l15 2q11 0 35 -1t38 -1q28 0 85.5 1t82.5 1h29q79 0 137.5 -4.5t126.5 -21.5t116 -46.5t89.5 -83t63.5 -127.5q16 -59 16 -111q0 -133 -78 -229q-30 -38 -76 -65q-24 -14 -84 -39v-9q85 -110 232 -317.5t209 -290.5q0 -8 -6 -8h-228q-283 378 -426 575h-184 v-567l-6 -8h-183zM336 772h12q19 0 62.5 -1t66.5 -1q167 0 228 68q51 54 51 125q0 14 -4 38q-14 53 -50.5 87.5t-92.5 49t-101.5 19t-108.5 4.5h-55l-8 -6v-383z" />
<glyph unicode="S" horiz-adv-x="985" d="M82 260l156 107q7 -11 17 -34.5t13 -29.5q26 -44 72 -78.5t100 -46.5q14 -4 45 -4q54 0 101.5 23.5t75.5 68.5q40 62 40 142q0 74 -45 122q-39 40 -91 71.5t-130.5 67.5t-111.5 54q-171 90 -205 207q-15 50 -15 100q0 116 66 197q116 143 291 143q53 0 92 -10 q74 -19 144 -73t100 -118q-23 -17 -79 -53t-83 -55q-70 106 -170 106q-29 0 -43 -4q-36 -7 -64 -38t-34 -66q-2 -8 -2 -25q0 -83 79 -125q37 -19 105.5 -48.5t115 -52.5t101 -58t93.5 -82.5t61 -108.5q26 -74 26 -158q0 -82 -28 -158t-82 -132q-63 -66 -147.5 -102 t-174.5 -36q-80 0 -156 31q-77 30 -142 101.5t-91 154.5z" />
<glyph unicode="T" horiz-adv-x="1138" d="M41 1165v178q0 9 8 9h1043q6 0 6 -6v-181q0 -6 -8 -6l-435 -2v-1149q0 -8 -8 -8h-178q-6 0 -6 6v1153h-414q-8 0 -8 6z" />
<glyph unicode="U" horiz-adv-x="1447" d="M123 582v761q0 9 8 9h178q6 0 6 -6v-762q0 -169 120.5 -289.5t287.5 -120.5q169 0 289.5 120.5t120.5 289.5v759q0 9 8 9h178q6 0 6 -6v-764q0 -122 -47.5 -233.5t-128.5 -191.5t-192.5 -127.5t-233.5 -47.5t-233.5 47.5t-191.5 127.5t-127.5 191.5t-47.5 233.5z" />
<glyph unicode="V" horiz-adv-x="1290" d="M20 1352h224l438 -1069l377 1069h211l-484 -1352h-200z" />
<glyph unicode="W" horiz-adv-x="1898" d="M16 1348q0 4 4 4h228l295 -990q4 -10 6 -14l8 19q193 636 289 950l10 12h211q47 -136 122 -372t126 -404l51 -168q252 825 289 956l16 11h207l-418 -1344q-1 -1 -2 -3t-2 -3.5t-2 -1.5h-194q-2 0 -3.5 2t-2.5 4l-1 2l-297 950q-4 -4 -290 -952q0 -6 -4 -6h-211v6 q-9 25 -190.5 589t-240.5 738q-4 9 -4 15z" />
<glyph unicode="X" horiz-adv-x="1449" d="M41 10l559 705l-489 626l4 11h237l377 -469l381 469h227l11 -9q-14 -20 -137.5 -177t-240.5 -304l-116 -147l555 -715h-235l-451 549l-440 -549h-240z" />
<glyph unicode="Y" horiz-adv-x="1181" d="M0 1337q0 5 12 13h219l13 -4q53 -67 110.5 -143t127.5 -170t108 -144h8q26 35 103 138.5t130 173t107 134.5q12 15 16 15h222q6 0 6 -11l-492 -643v-698h-192v698q-357 468 -498 641z" />
<glyph unicode="Z" horiz-adv-x="1247" d="M57 10q0 4 2.5 8.5t4.5 7.5l2 3q498 754 759 1120q2 2 2 6t-8 4h-708q-7 0 -7 6v178q0 9 9 9h1065v-13q-3 -5 -758 -1146h760q6 0 6 -9v-178q0 -6 -8 -6h-1080q-8 -2 -16 -2q-18 0 -21 6q-4 4 -4 6z" />
<glyph unicode="[" horiz-adv-x="589" d="M143 -262v1790q3 8 9 8h368q8 0 8 -8v-178q0 -9 -8 -9h-166q-6 0 -10.5 -1.5t-5.5 -3.5l-2 -1v-1411h186q6 0 6 -8v-178q0 -6 -8 -6h-366z" />
<glyph unicode="\" horiz-adv-x="1142" d="M211 1352h195l530 -1352h-205q-370 894 -520 1352z" />
<glyph unicode="]" horiz-adv-x="589" d="M61 -84q0 8 9 8h184v1411q-16 4 -16 6h-168q-9 0 -9 9v178q0 8 9 8h368q3 0 5 -2t3 -4v-2v-1790q-4 -6 -8 -6h-368q-9 0 -9 6v178z" />
<glyph unicode="^" horiz-adv-x="919" d="M20 723l429 426q4 4 12 4q10 0 18 -8l424 -426q0 -4 -8 -4h-256l-178 176l-176 -176h-260q-5 0 -5 8z" />
<glyph unicode="_" horiz-adv-x="1294" d="M-4 -8l6 8h1290l6 -4v-182l-4 -7h-1290q-8 0 -8 7v178z" />
<glyph unicode="`" horiz-adv-x="501" d="M61 1208v172l377 -200v-166z" />
<glyph unicode="a" horiz-adv-x="917" d="M61 250q0 71 41 132t107 101q78 49 172.5 70.5t216.5 28.5q2 20 2 51q0 38 -16 59q-57 84 -174 84q-34 0 -76 -10q-36 -9 -73 -25.5t-86.5 -44.5t-68.5 -37q31 96 84 213q117 52 244 52q147 0 236 -72q52 -39 92 -117q33 -67 33 -190v-537q0 -8 -9 -8h-176q-8 0 -8 6v55 l-51 -36q-92 -52 -199 -52q-72 0 -131 27q-70 41 -115 106.5t-45 143.5zM252 244q0 -44 41 -70q45 -29 98 -29q25 0 57.5 7t48.5 12t58.5 21.5t46.5 17.5v235q-22 -4 -73 -11.5t-80.5 -13t-69 -19t-68.5 -32.5q-59 -40 -59 -118z" />
<glyph unicode="b" horiz-adv-x="1126" d="M143 6v1337q0 7 9 7h178q6 0 6 -7v-477q6 2 16 8.5t27 12.5q98 37 207 37q162 0 266 -82q90 -74 141 -176t51 -215q0 -48 -8 -89q-22 -109 -100.5 -203.5t-185.5 -138.5q-93 -38 -199 -38q-115 0 -213 49q-2 0 -2 -27q-2 -6 -8 -6h-176q-9 0 -9 8zM336 252 q50 -37 119 -59q65 -21 114 -21q66 0 125 25.5t99 76.5q65 81 65 189q0 59 -24 115q-52 103 -144 143q-55 22 -108 22q-70 0 -136.5 -30t-109.5 -80v-381z" />
<glyph unicode="c" horiz-adv-x="960" d="M82 446q0 43 4 66q19 124 87 228t179 151q96 41 223 41q159 0 293 -64l9 -10q0 -95 -3 -221q-15 8 -53.5 31.5t-58.5 33.5q-84 43 -189 43q-115 0 -184 -61q-104 -91 -104 -227l4 -54q13 -85 83.5 -150.5t157.5 -80.5q18 -4 54 -4q74 0 138 31t144 90l13 4 q0 -23 -1 -74.5t-1 -77.5q0 -13 1 -37t1 -36q-128 -84 -306 -84q-148 0 -256 63q-112 67 -173.5 172t-61.5 227z" />
<glyph unicode="d" horiz-adv-x="1132" d="M82 467q0 69 14 129q24 112 118 202t206 115q80 17 139 17q58 0 118.5 -14t100.5 -35l8 -4q11 0 11 10v465l8 8q27 0 87 -1t87 -1q2 0 5 -2t5 -2v-1344l-6 -10h-186v23q0 14 -2 18q0 4 -9 4q-101 -61 -237 -61q-143 0 -250 69q-106 70 -161.5 179t-55.5 235zM268 477 q0 -3 1 -9t1 -9q6 -79 45 -146t105 -102q60 -35 137 -35q123 0 240 80v184q0 196 -2 219q-46 40 -115.5 64.5t-138.5 24.5q-70 0 -119 -27q-60 -32 -107 -100.5t-47 -143.5z" />
<glyph unicode="e" horiz-adv-x="1024" d="M82 453q0 33 2 49q15 129 102 242.5t209 152.5q77 23 146 23q95 0 178 -38.5t137 -115.5q86 -127 86 -313v-29l-16 -14q-8 0 -67.5 -1t-104.5 -1q-429 0 -475 4v-21q0 -46 40 -112q71 -115 259 -115q25 0 75 4q68 7 132.5 40.5t142.5 90.5l10 -2v-195 q-77 -55 -179.5 -84.5t-205.5 -29.5q-128 0 -217 45q-108 54 -181 171t-73 249zM287 565h458q0 40 -35.5 86t-72.5 68q-51 26 -115 26q-82 0 -149 -45q-38 -26 -61 -65t-25 -70z" />
<glyph unicode="f" horiz-adv-x="804" d="M41 721v178q0 8 8 8q146 0 146 4v37q0 137 40 232.5t142 148.5q73 37 184 37q80 0 182 -23v-190q0 -8 -4 -8t-6 2q-80 37 -151 37q-62 0 -105 -27q-52 -34 -71 -83.5t-19 -121.5v-34q0 -11 10 -11h342l4 -8v-182q0 -4 -4 -4h-344q-8 -2 -8 -8v-699l-6 -6h-182l-4 6v707 h-148q-6 0 -6 8z" />
<glyph unicode="g" horiz-adv-x="964" d="M0 -244q0 70 35 135q16 32 46 64t53.5 51t62.5 47l-47 43q-18 18 -25 45q-2 8 -2 27q0 88 84 158q-117 97 -117 256q0 56 19 118q31 101 124.5 172t196.5 74h25q111 0 221 -39h235q7 0 7 -6v-178q0 -8 -9 -8h-100q22 -74 22 -146q0 -165 -100 -250q-111 -94 -264 -94 q-64 0 -135 23q-25 -30 -25 -41q0 -10 4 -14l21 -23q48 -17 131.5 -36.5t144.5 -36.5t127.5 -46.5t112.5 -81t67 -125.5q9 -34 9 -65q0 -100 -66 -166q-122 -125 -379 -125q-55 0 -157 8q-98 7 -181 49.5t-123 122.5q-18 40 -18 88zM195 -221q0 -52 52.5 -84.5t158.5 -38.5 q40 -4 73 -4q190 0 248 88q12 18 12 43q0 29 -16 55q-38 54 -141 86q-38 13 -122.5 34t-103.5 26q-76 -51 -118.5 -105t-42.5 -100zM270 578q0 -16 9 -52q11 -43 51 -71.5t88 -38.5q24 -6 47 -6q97 0 156 77q32 38 32 103q0 57 -26 96q-26 36 -70 57t-92 21q-55 0 -105 -29 q-90 -55 -90 -157z" />
<glyph unicode="h" horiz-adv-x="1101" d="M143 10v1331q0 5 1 7t4 3.5t4 2.5h174l10 -11v-473q10 3 27.5 11.5t31.5 11.5q102 31 187 31q199 0 315 -125q58 -64 79 -140t23 -178q0 -21 1 -69t1 -74q0 -64 -1 -168.5t-1 -128.5v-33l-10 -6h-172l-10 10v529q-4 67 -59 120t-125 72q-40 4 -60 4q-127 0 -227 -63v-666 l-8 -6h-174z" />
<glyph unicode="i" horiz-adv-x="497" d="M121 1098q0 2 4 6l121 121q4 4 6 4l8 -8l113 -115l2 -8q-18 -17 -38.5 -37.5t-45.5 -46t-39 -39.5h-10q-121 121 -121 123zM152 8v897l6 2h182l6 -6v-893q0 -8 -6 -8h-180q-8 4 -8 8z" />
<glyph unicode="j" horiz-adv-x="532" d="M0 -283q5 0 32.5 -4t43.5 -4q20 0 30 4q28 10 46.5 27.5t27.5 42.5t12 48.5t3 55.5l4 1020h190q0 -1 -1 -545t-1 -591q-1 -84 -50 -153.5t-126 -98.5q-56 -21 -119 -21q-28 0 -78 8q-10 3 -12 9q0 22 -1 77.5t-1 83.5v41zM156 1120l4 6q123 123 125 123q4 0 8 -4 l117 -117v-10q-17 -16 -37.5 -36.5t-45.5 -46t-38 -38.5h-10q-113 113 -119 117q-4 4 -4 6z" />
<glyph unicode="k" horiz-adv-x="1017" d="M143 0v1346l7 6h180l6 -6v-740q0 -18 4 -18q1 0 6 6.5t8 7.5q40 35 108.5 98t127 114t112.5 93h238v-18l-448 -395q0 -5 2 -7q35 -34 223 -206.5t280 -272.5l-6 -8h-248q-65 56 -194.5 189.5t-204.5 193.5q-2 2 -6 2q-2 0 -2 -6v-371l-10 -8h-183z" />
<glyph unicode="l" horiz-adv-x="649" d="M123 281v1062l10 9h170l8 -6q-2 -1057 -2 -1061q6 -36 35.5 -77.5t71.5 -49.5q24 -4 37 -4q84 0 168 77q8 -2 8 -8v-198q-92 -50 -191 -50q-116 0 -207 66q-50 36 -79 102t-29 138z" />
<glyph unicode="m" horiz-adv-x="1705" d="M121 367v151.5t0.5 142.5t1 115t0.5 84v35l10 12h174q4 0 6 -2t2 -4v-2v-47q5 2 37 20t49 23q95 29 193 29q136 0 225 -58q27 -14 60 -47q112 109 297 109q145 0 262 -68q44 -26 75.5 -62t49 -72t27 -85.5t12 -90t2.5 -97.5v-445l-9 -8h-180l-4 10v541q-6 59 -50.5 110.5 t-100.5 63.5q-34 6 -68 6q-120 0 -225 -78v-653h-187l-6 8l2 545q0 50 -30 94t-78 66q-51 22 -109 22q-119 0 -244 -90v-639l-4 -6h-26q-19 0 -56 -1t-55 -1q-35 0 -51 2q0 49 -1 173.5t-1 193.5z" />
<glyph unicode="n" horiz-adv-x="1093" d="M123 8v893l4 6h176q8 -5 8 -20q0 -2 -1 -8t-1 -9q0 -4 2 -6q17 2 44.5 17.5t41.5 19.5q93 27 174 27q84 0 158.5 -23.5t136 -76.5t90.5 -130q29 -73 35 -159q6 -85 6 -179q0 -61 -3 -182t-3 -178h-198q0 5 0.5 38.5t1 85t0.5 101.5q0 60 -1 174t-1 154q-9 63 -61.5 117.5 t-117.5 72.5q-45 5 -51 5q-106 0 -241 -64l-11 -10v-666q0 -8 -6 -8h-176q-6 2 -6 8z" />
<glyph unicode="o" horiz-adv-x="1120" d="M82 446q0 123 54 229t159 173q122 78 280 78q111 0 201 -43q63 -29 123 -87t94 -122q45 -89 45 -205q0 -183 -100 -307q-72 -91 -172.5 -138t-212.5 -47q-75 0 -158 25q-108 32 -194.5 127.5t-108.5 206.5q-10 46 -10 110zM272 446q0 -84 41 -145q42 -65 105.5 -103 t136.5 -38q26 0 53 6q63 10 119.5 52t87.5 99q31 60 31 136q0 87 -39 149q-41 70 -109.5 107t-152.5 39q-127 0 -213 -117q-60 -78 -60 -185z" />
<glyph unicode="p" horiz-adv-x="1126" d="M123 -434v1333q0 4 2 6t4 2h2h176q8 0 8 -8v-59q5 3 20 12.5t21.5 13.5t20 11.5t22.5 11.5t20.5 8.5t22.5 7.5q61 17 131 17q113 0 214.5 -51t173.5 -144q83 -108 83 -276q0 -149 -67 -256t-177.5 -163.5t-238.5 -56.5q-42 0 -110 11q-21 4 -52.5 16t-52.5 22l-22 11 l-7 4q-2 0 -2 -8v-467q0 -8 -6 -8h-176zM315 254q136 -88 250 -88q37 0 70 8q73 15 131 76.5t76 134.5q6 27 6 59q0 91 -47 156q-46 69 -123 107q-56 24 -115 24q-130 0 -248 -102v-375z" />
<glyph unicode="q" horiz-adv-x="1126" d="M82 453q0 165 84 274q72 94 172.5 144.5t214.5 50.5q67 0 131 -17q43 -11 127 -65q0 6 -1 20t-1 21q0 3 1 9t1 9l1 3q1 4 2.5 4.5t6.5 0.5h178q5 0 5 -8v-1333l-9 -10h-176l-8 8v473q-1 0 -1.5 -0.5t-2 -1t-4.5 -0.5q-17 -5 -59 -25t-68 -24q-68 -11 -111 -11 q-128 0 -237 56t-176 164q-70 107 -70 258zM279 442q0 -30 6 -57q19 -73 77.5 -134.5t129.5 -76.5q33 -8 69 -8q117 0 250 88v375q-118 102 -248 102q-59 0 -112 -24q-79 -37 -125 -107q-47 -68 -47 -158z" />
<glyph unicode="r" horiz-adv-x="776" d="M123 8v893q1 0 3 3t3 3h178q8 -2 8 -4v-47q13 6 37.5 21t40.5 20q85 29 164 29q91 0 166 -35l12 -211q-11 6 -32.5 20t-32.5 19q-73 31 -131 31q-104 0 -203 -86l-21 -21v-633l-6 -10h-180z" />
<glyph unicode="s" horiz-adv-x="905" d="M82 659q0 58 25 110t71 87q102 74 256 74q156 0 289 -70v-194l-119 49q-103 43 -188 43q-54 0 -99 -23q-20 -11 -33.5 -29.5t-13.5 -37.5q0 -15 9 -27q44 -59 143 -76q5 -1 84 -12q56 -8 82 -14q88 -26 155.5 -85t77.5 -139q2 -14 2 -41q0 -80 -38 -148t-107 -99 q-103 -47 -244 -47q-191 0 -332 75l-6 8v193q23 -9 64.5 -25.5t66.5 -25.5q118 -51 236 -51q19 0 55 4q34 3 63.5 21t43.5 50q6 12 6 27q0 30 -21 51q-34 38 -82 56t-117 27t-98 18q-79 24 -140 70t-81 110q-10 29 -10 71z" />
<glyph unicode="t" horiz-adv-x="813" d="M41 725v178h160q3 0 4.5 2t1.5 4v2v215l4 11h188v-234h353v-182l-9 -6h-333l-11 -8v-418q0 -76 62 -109q40 -22 90 -22q77 0 201 61v-174q-95 -59 -215 -59q-84 0 -160 28q-51 19 -86 51.5t-52.5 75.5t-24.5 86t-7 95q0 22 -1 66t-1 65q0 44 1 131t1 131h-154z" />
<glyph unicode="u" horiz-adv-x="1087" d="M102 309v598h187l6 -14v-563q13 -63 66 -108.5t122 -57.5q32 -4 47 -4q130 0 240 96v147t-0.5 169.5t-1 156t-0.5 121v49.5q0 4 2.5 6t5.5 2h2h178q9 -4 9 -10v-891q-2 -6 -7 -6h-182q-2 0 -4 6v43q-117 -69 -264 -69q-92 0 -172 30q-94 37 -164 121.5t-70 177.5z" />
<glyph unicode="v" horiz-adv-x="964" d="M20 907h199l264 -649l254 649h207q-89 -212 -161.5 -386t-106 -255.5t-58.5 -142t-34.5 -83t-18.5 -40.5h-176z" />
<glyph unicode="w" horiz-adv-x="1527" d="M20 907h201l260 -635l215 592l6 2h136q30 -78 86.5 -229.5t94 -252t38.5 -99.5l243 622h207q-89 -212 -161.5 -386t-106 -255.5t-58.5 -142t-34.5 -83t-18.5 -40.5h-176l-188 500q-28 -71 -79.5 -201t-81.5 -206t-38 -93h-176z" />
<glyph unicode="x" horiz-adv-x="983" d="M37 4l6 14l309 457v14q-287 394 -297 406q-4 2 -4 6l2 6h226l206 -258l174 258h201q8 0 8 -4l-2 -6l-270 -408l-2 -12l348 -477h-240l-221 315h-10l-217 -315h-213q-4 0 -4 4z" />
<glyph unicode="y" horiz-adv-x="1062" d="M20 907h203q9 0 19 -16l282 -576l15 7q293 548 307 577q3 8 14 8h203q-420 -765 -596 -1118q-56 -113 -162 -181.5t-227 -68.5h-15l-8 8v162h17q130 0 186 90q9 15 34 54.5t36.5 59.5t30 52t31 61.5t22.5 59.5l10 29z" />
<glyph unicode="z" horiz-adv-x="917" d="M61 0v14l453 701q-139 -4 -207 -4q-65 0 -205 4l-10 6v178l10 8h469q183 0 277 -2l8 -4l-473 -698v-10q11 0 35 -1.5t35 -1.5q45 0 134 2.5t134 2.5q78 0 119 -2l10 -9v-176l-10 -8q-55 2 -166 2q-75 0 -225.5 -2t-225.5 -2q-109 0 -162 2z" />
<glyph unicode="{" horiz-adv-x="628" d="M59 698q0 42 22.5 77.5t68.5 53.5q70 26 96 75t26 120v12q-1 31 -8.5 107.5t-7.5 116.5q0 87 29 141q61 108 200 131q24 6 50 6q25 0 67 -10l-2 -172q-10 2 -33 2q-42 0 -75 -17q-26 -14 -44 -40.5t-18 -55.5q3 -30 9.5 -86t10 -101t3.5 -87v-17q-1 -72 -42 -142.5 t-104 -119.5q63 -48 103 -119t43 -143v-18q0 -41 -3.5 -84.5t-11 -106t-10.5 -88.5q0 -25 18.5 -51t42.5 -39q33 -16 78 -16q6 0 17 1t16 1l2 -172q-42 -11 -63 -11q-26 0 -54 7q-142 23 -200 133q-31 51 -31 139q0 40 7.5 116t8.5 107v12q0 72 -27 122t-96 73 q-37 9 -62.5 51t-25.5 92z" />
<glyph unicode="|" horiz-adv-x="380" d="M94 -383v1870q0 8 8 8h177q8 0 8 -6v-1870q0 -8 -8 -8h-179q-6 0 -6 6z" />
<glyph unicode="}" horiz-adv-x="643" d="M53 1528q42 10 68 10q27 0 51 -6q141 -23 199 -131q30 -59 30 -146q0 -40 -7.5 -114t-8.5 -105v-12q0 -47 9 -81t37 -65.5t77 -48.5q88 -38 88 -131q0 -50 -25.5 -92t-62.5 -51q-69 -23 -95 -73t-26 -122v-12q0 -34 7 -109t7 -112q0 -91 -28 -141q-60 -110 -201 -133 q-31 -7 -53 -7t-64 11l2 172q5 0 16 -1t17 -1q49 0 78 16q25 14 43 41t18 55q-2 21 -7.5 66.5t-8.5 72t-5.5 64.5t-2.5 70v18q3 72 43 143t102 119q-63 49 -103.5 119.5t-41.5 142.5v33q0 57 22 264q0 25 -18 50.5t-43 39.5q-35 17 -78 17q-23 0 -31 -2z" />
<glyph unicode="~" horiz-adv-x="925" d="M59 750q39 99 115 155q63 49 145 49q43 0 101 -14q37 -10 102 -35.5t94 -34.5q82 -28 142 -28q70 0 123 45q3 6 4 6t3 -1t3 -1q-37 -99 -115 -158q-62 -49 -145 -49q-51 0 -119 21q-30 9 -90 31.5t-90 31.5q-85 29 -139 29q-72 0 -125 -45q-3 -9 -7 -9z" />
<glyph unicode="&#xa1;" horiz-adv-x="436" d="M78 1229v10l123 121h10q111 -113 117 -117l2 -10l-123 -123q-2 -2 -6 -2t-6 4zM104 -20v204q4 154 14.5 362.5t18.5 339.5l8 132h115q37 -485 37 -834v-204h-193z" />
<glyph unicode="&#xa2;" horiz-adv-x="929" d="M45 711q0 42 4 65q16 123 85 227.5t181 151.5q59 24 119 33v155q0 9 8 9h179q3 0 4.5 -1.5t1.5 -2.5v-2v-154q112 -15 204 -59l7 -11q0 -137 -2 -221q-10 6 -50 31t-61 35q-84 43 -188 43q-117 0 -185 -62q-104 -91 -104 -227q2 -35 4 -53q13 -86 83.5 -151.5 t158.5 -80.5q18 -4 53 -4q74 0 138 31t144 90l11 4v-113q0 -77 2 -112q-93 -59 -215 -78v-160q0 -6 -9 -6h-178q-6 0 -6 6v162q-88 16 -153 55q-112 67 -174 172.5t-62 227.5z" />
<glyph unicode="&#xa3;" horiz-adv-x="1189" d="M49 0q0 13 8 24.5t22 23.5t19 18q20 25 35.5 51.5t27.5 62t19 55.5t14.5 67t9.5 60t8 71t7 65q0 8 -4 8l-129 2q-8 0 -8 10l67 182h101q1 23 5 91.5t6 98t10 91.5t17.5 94.5t28 82t42 80.5t59 63t80.5 53q79 28 153 28q93 0 148 -39q53 -35 110 -110v-10 q-5 -8 -55.5 -82.5t-71.5 -116.5h-8q-26 145 -115 164q-8 2 -26 2q-74 0 -119 -64q-35 -53 -48.5 -119t-17 -164t-8.5 -136l6 -7h330q12 -3 12 -8q0 -6 -2 -10l-77 -178h-281q-2 -16 -8 -65t-9 -66t-10 -52t-17 -62.5t-24 -57.5l9 -8h778q-18 -49 -111 -193h-983z" />
<glyph unicode="&#xa4;" horiz-adv-x="1073" d="M16 981q0 2 4 6l130 129q2 0 6 -4l106 -104q122 86 275 86q131 0 245 -68l115 111q4 0 6 -2l125 -125q4 -4 4 -6q0 -5 -4 -5l-104 -106q86 -124 86 -275v-18q-6 -141 -86 -254l96 -96l-129 -129q-6 -6 -8 -6l-11 8l-90 92q-112 -70 -245 -70q-148 0 -275 86l-98 -94 l-133 137l100 99q-70 111 -70 229v16q7 144 70 248zM248 610q0 -84 41 -145q42 -64 105.5 -101.5t135.5 -37.5q27 0 54 6q63 11 119.5 52t87.5 99q30 58 30 135q0 88 -39 150q-41 69 -109.5 107t-152.5 38q-128 0 -213 -116q-59 -81 -59 -187z" />
<glyph unicode="&#xa5;" horiz-adv-x="1255" d="M37 1337q0 7 12 13h217l15 -4q45 -58 164.5 -215t187.5 -242q37 48 107.5 142.5t127.5 168.5t111 139q10 13 14 13q2 0 5.5 -1t5.5 -1h208q7 0 7 -11l-347 -452h105l6 -6v-181l-4 -6h-252v-133h250l6 -4v-182l-4 -6h-252v-371h-192v371h-250q-11 0 -11 10v176l9 6h252 v133h-252q-9 0 -9 6v179l7 8h108q-166 220 -352 450z" />
<glyph unicode="&#xa6;" horiz-adv-x="479" d="M143 6v621q0 8 11 8h176q6 0 6 -6v-621q0 -8 -8 -8h-176q-9 0 -9 6zM143 721v620q0 9 9 9h178q6 0 6 -9v-618q0 -8 -8 -8h-178q-7 0 -7 6z" />
<glyph unicode="&#xa7;" horiz-adv-x="1060" d="M57 -43l158 104l31 -61q26 -49 71.5 -85.5t98.5 -39.5q5 0 14 -1t14 -1q129 0 183 90q43 71 43 150q0 70 -37 112q-36 43 -89 74.5t-130.5 65.5t-114.5 55q-173 90 -203 205q-14 49 -14 106q0 112 63 193q45 56 111 96q-26 32 -35 70q-14 46 -14 102q0 118 65 197 q111 141 289 141q53 0 94 -10q73 -18 143 -72t99 -119q-22 -16 -77.5 -51.5t-82.5 -56.5q-73 108 -170 108q-29 0 -43 -4q-36 -9 -64 -39.5t-36 -66.5q-2 -8 -2 -23q0 -37 21 -71t59 -54q39 -20 108.5 -50.5t116 -53t100 -57t92 -82t60.5 -107.5q27 -77 27 -156 q0 -83 -29 -160t-84 -135q-20 -20 -35 -32q21 -67 21 -140q0 -82 -28.5 -158.5t-82.5 -132.5q-63 -66 -147 -101.5t-175 -35.5q-79 0 -155 31q-53 21 -100.5 60t-77.5 89q-5 10 -18 30.5t-22.5 38.5t-15.5 38zM297 731q0 -37 21 -71t59 -54q34 -17 115.5 -52t141.5 -67.5 t107 -72.5l11 14q43 71 43 152q0 67 -35 110q-27 32 -67 59.5t-71.5 42.5t-87.5 40t-83 38l-54 -10q-35 -7 -63.5 -38.5t-34.5 -67.5q-2 -8 -2 -23z" />
<glyph unicode="&#xa8;" horiz-adv-x="991" d="M160 1122l125 125q2 4 6 4q2 0 6 -4l123 -121l-129 -129h-10zM567 1122l131 125q3 4 7 4q2 0 6 -4l116 -119v-8l-120 -123h-11q-65 67 -129 125z" />
<glyph unicode="&#xaa;" horiz-adv-x="749" d="M61 1042q0 129 92 220.5t222 91.5q58 0 119 -23v15l6 6h180l8 -4v-609q0 -8 -8 -8h-178l-8 6v17q-66 -25 -119 -25q-130 0 -222 92t-92 221zM66 481v176l8 9h608l6 -7v-180l-4 -8h-608q-10 0 -10 10zM238 1042q0 -57 40 -96t97 -39q38 0 70 20t49 54v123q-18 33 -50 53.5 t-69 20.5q-57 0 -97 -40t-40 -96z" />
<glyph unicode="&#xab;" horiz-adv-x="1097" d="M37 451q0 9 6 12l428 430q6 0 6 -6v-260l-176 -176l176 -179v-256q0 -8 -4 -8t-6 2l-420 422q-10 8 -10 19zM547 455q0 6 4 10q430 430 432 430q4 0 4 -6v-258l-176 -178l176 -177v-258q0 -8 -4 -8q-2 0 -6 4l-420 420q-10 10 -10 21z" />
<glyph unicode="&#xac;" d="M82 530v177l6 8h614l9 -6l-2 -404q0 -8 -9 -8h-178l-8 6v217h-422q-10 0 -10 10z" />
<glyph unicode="&#xad;" d="M82 365v176l6 6h614l9 -4v-183l-4 -6h-615q-10 0 -10 11z" />
<glyph unicode="&#xaf;" horiz-adv-x="710" d="M41 1047v176l6 6h615l8 -4v-183l-4 -6h-615q-10 0 -10 11z" />
<glyph unicode="&#xb0;" horiz-adv-x="731" d="M55 1092q0 129 92 220t222 91q129 0 220 -91t91 -220t-91 -221.5t-220 -92.5q-130 0 -222 92.5t-92 221.5zM231 1092q0 -57 40.5 -96.5t97.5 -39.5q56 0 95.5 39.5t39.5 96.5q0 56 -40 95.5t-95 39.5q-57 0 -97.5 -39.5t-40.5 -95.5z" />
<glyph unicode="&#xb1;" d="M82 530v177l6 8h205v203l6 6h180l8 -4v-205h215l9 -6v-181l-4 -8h-220v-215q0 -8 -8 -8h-178l-8 6v217h-201q-10 0 -10 10zM135 14v176l8 9h492l6 -6v-181l-4 -8h-492q-10 0 -10 10z" />
<glyph unicode="&#xb4;" horiz-adv-x="559" d="M111 1423v166l378 201v-170z" />
<glyph unicode="&#xb6;" horiz-adv-x="1079" d="M61 936q0 171 95 283q118 133 280 133h494q6 -3 6 -9v-1335q0 -8 -6 -8h-182l-5 8v1151q-6 0 -18.5 -1t-19.5 -1q-31 0 -101 4q0 -211 -1 -574t-1 -579q0 -8 -8 -8h-176q-8 0 -8 6v531q-233 35 -310 208q-39 82 -39 191zM264 930q0 -56 25 -101q39 -68 121 -94l2 412 q-67 -18 -109 -78q-39 -64 -39 -139z" />
<glyph unicode="&#xb7;" horiz-adv-x="315" d="M61 354v181q0 6 9 6h178q6 0 6 -6v-179q0 -8 -8 -8h-178q-7 0 -7 6z" />
<glyph unicode="&#xb8;" horiz-adv-x="471" d="M39 -250q0 8 1 28t1 32q9 -1 46.5 -9t57.5 -8q13 0 25 4q28 8 44.5 47.5t20 73.5t3.5 70v20l192 -4v-129q0 -80 -51 -139t-133 -90q-55 -21 -123 -21q-35 0 -70 6q-12 3 -12 9q0 20 -1 55t-1 55z" />
<glyph unicode="&#xb9;" horiz-adv-x="1439" d="M90 670q0 97 29 207q44 165 174.5 299t292.5 180q98 28 229 28q69 0 127 -6q176 -17 346 -112v-232q-107 69 -232.5 111.5t-246.5 42.5q-167 0 -289 -84q-111 -76 -165 -189.5t-54 -250.5q0 -44 6 -91q17 -135 132.5 -252.5t252.5 -150.5q60 -14 127 -14q156 0 301 82 l2 475h191l4 -6q0 -3 -0.5 -55t-1 -133t-0.5 -154q0 -43 1 -122.5t1 -111.5q-112 -93 -266 -131q-135 -33 -246 -33q-169 0 -314.5 64t-248.5 194q-152 190 -152 445z" />
<glyph unicode="&#xba;" horiz-adv-x="749" d="M61 1057q0 129 92 220t222 91q129 0 220 -91t91 -220t-91 -221.5t-220 -92.5q-130 0 -222 92.5t-92 221.5zM66 496v176l8 8h608l6 -6v-180l-4 -9h-608q-10 0 -10 11zM238 1057q0 -57 40 -96t97 -39q56 0 95.5 39t39.5 96q0 55 -40 95t-95 40q-57 0 -97 -39.5t-40 -95.5z " />
<glyph unicode="&#xbb;" horiz-adv-x="1142" d="M137 18v258l176 177l-176 178v243q0 19 6 19q3 0 9 -6l419 -422q4 -4 4 -12q0 -11 -8 -19l-426 -424q-4 0 -4 8zM643 897l438 -434q4 -4 4 -10q0 -11 -10 -21l-420 -422q-2 -2 -6 -2t-4 8v256l178 179l-178 176z" />
<glyph unicode="&#xbc;" horiz-adv-x="1304" d="M143 6v1337q0 9 9 9h178q6 0 6 -6v-545l551 530q8 8 20 8h264q9 0 9 -8q0 -4 -4 -8l-574 -553l674 -758q6 -6 6 -8q0 -4 -8 -4h-248q-4 0 -8.5 2t-7.5 4l-2 2l-672 748v-746q-1 -1 -3 -5.5t-5 -4.5h-176q-9 0 -9 6z" />
<glyph unicode="&#xbd;" horiz-adv-x="1904" d="M20 1352h224l438 -1069l182 518l-229 551h223l109 -262l92 262h211l-193 -535l219 -534l377 1069h211l-483 -1352h-201l-223 532l-191 -532h-200z" />
<glyph unicode="&#xbe;" horiz-adv-x="2174" d="M61 446q0 123 54 229t159 173q122 78 281 78q111 0 201 -43q63 -29 123 -87t94 -122q45 -89 45 -205q0 -183 -100 -307q-59 -71 -127 -113q378 -188 600 -276q49 -19 86 -19q51 0 135 33q0 -45 2 -83.5t2 -55.5q-74 -39 -170 -39q-105 0 -193 39q-358 151 -735 329 q-69 3 -143 25q-108 32 -194.5 127.5t-108.5 206.5q-11 51 -11 110zM252 446q0 -84 41 -145q42 -65 105.5 -103t136.5 -38q26 0 53 6q63 10 119.5 52t87.5 99q30 59 30 136q0 87 -39 149q-41 70 -109.5 107t-152.5 39q-127 0 -213 -117q-59 -77 -59 -185zM1210 309v598h187 l6 -14v-563q12 -63 64.5 -108.5t123.5 -57.5q32 -4 47 -4q128 0 238 96v643q0 4 2.5 6t5.5 2h2h178l9 -12v-887q0 -4 -2.5 -6t-4.5 -2h-2h-178q-6 0 -6 6v43q-117 -69 -264 -69q-92 0 -172 30q-95 37 -164.5 121.5t-69.5 177.5z" />
<glyph unicode="&#xbf;" horiz-adv-x="835" d="M78 324q0 140 78 227q30 34 64 65.5t82 72.5t69 59q26 23 26 73q0 21 -6 39q-14 42 -72 84l117 127q50 -22 90 -76q64 -87 64 -170q0 -32 -8 -63q-14 -51 -51 -96t-102.5 -102t-84.5 -77q-76 -76 -76 -151q0 -39 23 -84q37 -70 135 -70q30 0 57 6q51 9 94.5 50t65.5 92 q85 -61 143 -111q-30 -94 -121.5 -158.5t-197.5 -72.5q-14 -2 -39 -2q-101 0 -181.5 39t-125.5 120q-43 76 -43 179zM311 1247v10l123 123h10q111 -114 117 -118q4 -4 4 -7q0 -2 -4 -6l-121 -121q-2 -2 -6 -2t-6 4z" />
<glyph unicode="&#xc0;" horiz-adv-x="1306" d="M18 4q0 1 1 3t1 3l537 1333q0 3 2.5 5t4.5 3l3 1h174q9 -5 11 -9l534 -1333q0 -10 -4 -10h-199q-4 0 -4 4l-127 320h-596q-129 -324 -131 -324h-200q-7 0 -7 4zM434 516h440l-221 551zM475 1591v170l377 -200v-166z" />
<glyph unicode="&#xc1;" horiz-adv-x="1306" d="M18 4q0 1 1 3t1 3l537 1333q0 3 2.5 5t4.5 3l3 1h174q9 -5 11 -9l534 -1333q0 -10 -4 -10h-199q-4 0 -4 4l-127 320h-596q-129 -324 -131 -324h-200q-7 0 -7 4zM434 516h440l-221 551zM508 1423v166l379 201v-170z" />
<glyph unicode="&#xc2;" horiz-adv-x="1306" d="M18 4q0 1 1 3t1 3l537 1333q0 3 2.5 5t4.5 3l3 1h174q9 -5 11 -9l534 -1333q0 -10 -4 -10h-199q-4 0 -4 4l-127 320h-596q-129 -324 -131 -324h-200q-7 0 -7 4zM303 1411q131 139 201.5 213t103.5 108.5t39 39.5t8 4l344 -365h-229l-119 127l-121 -127h-227zM434 516h440 l-221 551z" />
<glyph unicode="&#xc3;" horiz-adv-x="1306" d="M18 4q0 1 1 3t1 3l537 1333q0 3 2.5 5t4.5 3l3 1h174q9 -5 11 -9l534 -1333q0 -10 -4 -10h-199q-4 0 -4 4l-127 320h-596q-129 -324 -131 -324h-200q-7 0 -7 4zM313 1481q41 100 115 157q62 48 143 48q39 0 105 -15q37 -9 103.5 -34t92.5 -33q73 -27 127 -27q74 0 131 49 q2 4 9 4q2 0 4.5 -4t3.5 -4q-44 -102 -117 -156q-60 -49 -145 -49q-47 0 -119 21q-33 10 -95 33t-83 30q-91 27 -135 27q-70 0 -123 -45q-6 -6 -11 -6q-2 0 -3.5 2t-2.5 2zM434 516h440l-221 551z" />
<glyph unicode="&#xc4;" horiz-adv-x="1306" d="M18 4q0 1 1 3t1 3l537 1333q0 3 2.5 5t4.5 3l3 1h174q9 -5 11 -9l534 -1333q0 -10 -4 -10h-199q-4 0 -4 4l-127 320h-596q-129 -324 -131 -324h-200q-7 0 -7 4zM238 1499l122 123q3 4 7 4q2 0 6 -4l116 -119v-8l-122 -123h-11zM434 516h440l-221 551zM815 1503 q125 125 127 125q4 0 6 -2l117 -119v-8l-121 -123h-10z" />
<glyph unicode="&#xc5;" horiz-adv-x="1306" d="M18 4q0 1 1 3t1 3l537 1331q-38 25 -60 65.5t-22 86.5q0 75 52.5 127.5t127.5 52.5t128 -52.5t53 -127.5q0 -100 -84 -154l534 -1335q0 -4 -4 -4h-199q-4 0 -4 4l-127 320h-596l-127 -320q0 -4 -4 -4h-200q-7 0 -7 4zM434 516h440l-221 551zM578 1493q0 -32 22.5 -55 t54.5 -23t55 23t23 55t-23 55t-55 23t-54.5 -23t-22.5 -55z" />
<glyph unicode="&#xc6;" horiz-adv-x="1988" d="M0 0q0 1 11 14q227 284 1007 1329q3 4 7 6t7 3h2q266 0 832 -4q6 0 6 -7v-178q0 -8 -8 -8h-627l-16 -2v-322h475q8 0 8 -8v-178q0 -8 -10 -8h-459q-14 -4 -14 -12v-435h680q6 0 6 -8v-178q0 -8 -9 -8l-862 2q-5 0 -8 6v320h-553l-248 -320q-4 -4 -8 -4h-219zM625 516h403 v520z" />
<glyph unicode="&#xc7;" horiz-adv-x="1402" d="M111 672q0 181 79 334.5t230 259.5q165 114 407 114q262 0 453 -125l12 -16v-197q-5 -8 -10 -8q-2 0 -45 21q-90 56 -198.5 89.5t-215.5 33.5q-157 0 -278 -78q-114 -74 -174 -187.5t-60 -248.5q0 -34 2 -50q12 -133 110.5 -249.5t229.5 -163.5q83 -29 168 -29 q116 0 228 47.5t237 130.5q2 -8 2 -22v-203q-160 -121 -387 -143q2 -35 2 -107q-1 -81 -52.5 -139.5t-133.5 -89.5q-55 -21 -121 -21q-36 0 -70 6q-12 3 -14 9q0 20 -1 55t-1 55q0 8 1 28t1 32q10 -1 47 -9t57 -8q13 0 25 4q72 22 72 135q0 9 -1 27t-1 27q-123 17 -209 59 q-163 78 -269.5 232.5t-119.5 332.5q-2 20 -2 62z" />
<glyph unicode="&#xc8;" horiz-adv-x="1218" d="M258 6v1337q2 7 8 7h830q6 0 6 -7v-178q0 -8 -8 -8h-627l-16 -2v-324h475q8 0 8 -6v-178q0 -8 -10 -8h-467q-6 -2 -6 -10v-439h679q7 0 7 -6v-178q0 -8 -9 -8h-862zM449 1622v170l376 -201v-166z" />
<glyph unicode="&#xc9;" horiz-adv-x="1103" d="M143 6v1337q3 7 9 7h829q8 0 8 -7v-178q0 -8 -8 -8h-629l-16 -2v-324h477q6 0 6 -6v-178q0 -8 -10 -8h-467q-6 -2 -6 -10v-439h680q6 0 6 -6v-178q0 -8 -8 -8h-860zM412 1423v166l379 201v-170z" />
<glyph unicode="&#xca;" horiz-adv-x="1103" d="M143 6v1337q3 7 9 7h829q8 0 8 -7v-178q0 -8 -8 -8h-629l-16 -2v-324h477q6 0 6 -6v-178q0 -8 -10 -8h-467q-6 -2 -6 -10v-439h680q6 0 6 -6v-178q0 -8 -8 -8h-860zM221 1436l342 364l342 -364h-219l-123 131l-125 -131h-217z" />
<glyph unicode="&#xcb;" horiz-adv-x="1103" d="M143 6v1337q3 7 9 7h829q8 0 8 -7v-178q0 -8 -8 -8h-629l-16 -2v-324h477q6 0 6 -6v-178q0 -8 -10 -8h-467q-6 -2 -6 -10v-439h680q6 0 6 -6v-178q0 -8 -8 -8h-860zM231 1550q125 125 127 125q5 0 9 -4q114 -114 114 -121q0 -1 1 -3t1 -3l-123 -121h-10 q-111 113 -117 117q-2 2 -2 10zM647 1550q125 125 127 125t6 -4l117 -117v-10q-17 -16 -37.5 -36.5t-45.5 -46t-38 -38.5h-10q-111 113 -117 117q-2 2 -2 10z" />
<glyph unicode="&#xcc;" horiz-adv-x="481" d="M20 1624v170l377 -199v-168zM158 6v1337q0 9 8 9h178q6 0 6 -6v-1338q0 -8 -8 -8h-176q-8 0 -8 6z" />
<glyph unicode="&#xcd;" horiz-adv-x="460" d="M61 1423v166l377 201v-170zM113 6v1337q0 9 8 9h176q8 0 8 -6v-1338q0 -8 -8 -8h-178q-6 0 -6 6z" />
<glyph unicode="&#xce;" horiz-adv-x="688" d="M10 1411l334 363l334 -363h-207l-127 139l-127 -139h-207zM246 6v1337q0 9 8 9h178q6 0 6 -6v-1338q0 -8 -8 -8h-176q-8 0 -8 6z" />
<glyph unicode="&#xcf;" horiz-adv-x="604" d="M10 1522q125 125 127 125q4 0 6 -2l117 -119v-8l-121 -123h-10zM209 6v1337q0 9 8 9h178q6 0 6 -6v-1338q0 -8 -8 -8h-176q-8 0 -8 6zM342 1522l123 123q2 4 6 4q2 0 6 -4l117 -119v-8l-121 -123h-10z" />
<glyph unicode="&#xd0;" horiz-adv-x="1382" d="M0 608v176l6 9h129v550q0 9 8 9h471q138 0 265 -53t219 -143t147 -215t55 -263q0 -184 -91 -340.5t-247.5 -247t-340.5 -90.5h-478q-8 0 -8 6v592h-125q-10 0 -10 10zM328 193h297q132 0 243.5 65t176.5 176.5t65 243.5q0 98 -40.5 187.5t-107.5 153.5t-158.5 102 t-189.5 38h-286v-366h293l8 -7v-180l-4 -8h-297v-405z" />
<glyph unicode="&#xd1;" horiz-adv-x="1490" d="M143 6v1337q0 9 9 9h178q10 -1 16 -9l809 -1038v1038q0 9 8 9h176q9 0 9 -9v-1335q0 -8 -9 -8h-194q-4 0 -6 1t-2 2v1l-801 1032v-1028q0 -8 -8 -8h-176q-9 0 -9 6zM299 1481q41 100 115 157q62 48 143 48q39 0 105 -15q37 -9 103.5 -34t92.5 -33q87 -27 125 -27 q69 0 129 49q9 6 14 6q3 0 5.5 -1.5t3.5 -3.5l2 -4t1 -3t1 0q-37 -89 -121 -154q-62 -49 -148 -49q-46 0 -118 21q-34 10 -96.5 33t-82.5 30q-91 27 -127 27q-63 0 -118 -47q-11 -11 -17 -11q-2 0 -4 1.5t-3 3t-2 3.5l-1.5 3t-1.5 0z" />
<glyph unicode="&#xd2;" horiz-adv-x="1511" d="M150 676q0 133 43.5 257.5t128.5 219.5q104 117 240.5 176.5t289.5 59.5q60 0 121 -9q129 -20 244 -100t202 -203q111 -155 111 -387q0 -190 -78 -340q-88 -173 -253.5 -276t-358.5 -103q-204 0 -377.5 114t-255.5 302q-57 132 -57 289zM362 678q0 -103 33 -191 q40 -108 138.5 -192.5t209.5 -106.5q39 -8 91 -8q187 0 333 133q76 67 115 164t39 203q0 110 -37 203q-32 86 -107 160.5t-161 105.5q-88 31 -176 31q-99 0 -190.5 -38t-157.5 -110q-63 -69 -96.5 -162t-33.5 -192zM662 1667v170l378 -201v-166z" />
<glyph unicode="&#xd3;" horiz-adv-x="1511" d="M86 676q0 133 43.5 257.5t128.5 219.5q104 117 240.5 176.5t289.5 59.5q59 0 121 -9q129 -20 244.5 -100t202.5 -203q110 -153 110 -387q0 -192 -77 -340q-88 -173 -254 -276t-359 -103q-204 0 -377.5 114t-255.5 302q-57 132 -57 289zM299 678q0 -103 33 -191 q40 -108 138.5 -192.5t209.5 -106.5q39 -8 90 -8q188 0 334 133q76 67 114.5 163.5t38.5 203.5q0 112 -36 203q-32 86 -107.5 160.5t-161.5 105.5q-88 31 -176 31q-99 0 -190.5 -38t-157.5 -110q-63 -69 -96 -162t-33 -192zM633 1423v166l379 201v-170z" />
<glyph unicode="&#xd4;" horiz-adv-x="1511" d="M150 676q0 133 43.5 257.5t128.5 219.5q104 117 240.5 176.5t289.5 59.5q60 0 121 -9q129 -20 244 -100t202 -203q111 -155 111 -387q0 -190 -78 -340q-88 -173 -253.5 -276t-358.5 -103q-204 0 -377.5 114t-255.5 302q-57 132 -57 289zM362 678q0 -103 33 -191 q40 -108 138.5 -192.5t209.5 -106.5q39 -8 91 -8q187 0 333 133q76 67 115 164t39 203q0 110 -37 203q-32 86 -107 160.5t-161 105.5q-88 31 -176 31q-99 0 -190.5 -38t-157.5 -110q-63 -69 -96.5 -162t-33.5 -192zM475 1468q345 365 350 365l346 -365h-229l-121 127 l-119 -127h-227z" />
<glyph unicode="&#xd5;" horiz-adv-x="1511" d="M150 676q0 133 43.5 257.5t128.5 219.5q104 117 240.5 176.5t289.5 59.5q60 0 121 -9q129 -20 244 -100t202 -203q111 -155 111 -387q0 -190 -78 -340q-88 -173 -253.5 -276t-358.5 -103q-204 0 -377.5 114t-255.5 302q-57 132 -57 289zM362 678q0 -103 33 -191 q40 -108 138.5 -192.5t209.5 -106.5q39 -8 91 -8q187 0 333 133q76 67 115 164t39 203q0 110 -37 203q-32 86 -107 160.5t-161 105.5q-88 31 -176 31q-99 0 -190.5 -38t-157.5 -110q-63 -69 -96.5 -162t-33.5 -192zM434 1522q41 100 115 157q60 47 143 47q44 0 105 -14 q37 -9 103.5 -34t92.5 -33q73 -27 127 -27q74 0 131 49q2 4 9 4q2 0 4.5 -4t3.5 -4q-44 -102 -117 -156q-60 -49 -145 -49q-47 0 -119 21q-33 10 -95 33t-83 30q-91 27 -136 27q-69 0 -122 -45q-6 -6 -11 -6q-2 0 -3.5 2t-2.5 2z" />
<glyph unicode="&#xd6;" horiz-adv-x="1525" d="M150 676q0 133 43.5 257.5t128.5 219.5q104 117 240.5 176.5t289.5 59.5q60 0 121 -9q129 -20 244 -100t202 -203q111 -155 111 -387q0 -190 -78 -340q-88 -173 -253.5 -276t-358.5 -103q-204 0 -377.5 114t-255.5 302q-57 132 -57 289zM362 678q0 -103 33 -191 q40 -108 138.5 -192.5t209.5 -106.5q39 -8 91 -8q187 0 333 133q76 67 115 164t39 203q0 110 -37 203q-32 86 -107 160.5t-161 105.5q-88 31 -176 31q-99 0 -190.5 -38t-157.5 -110q-63 -69 -96.5 -162t-33.5 -192zM385 1532q125 125 127 125q4 0 6 -2l117 -119v-8 l-121 -123h-10q-111 113 -117 117q-2 2 -2 10zM1038 1532l123 123q2 4 6 4q3 0 7 -4l116 -119v-8l-121 -123h-10l-104 104l-13 13q-4 4 -4 10z" />
<glyph unicode="&#xd7;" horiz-adv-x="1017" d="M127 279l6 14l262 346q-254 330 -260 338q-4 2 -4 6l2 6h225l156 -211l162 211h205q4 -4 4 -6l-262 -340l299 -371h-240l-170 246l-168 -244h-213q-4 0 -4 5z" />
<glyph unicode="&#xd8;" horiz-adv-x="1544" d="M82 676q0 133 43.5 257.5t128.5 219.5q103 117 239.5 176.5t290.5 59.5q57 0 119 -9q158 -23 301 -141l109 109q0 4 4 4q2 0 6 -4l125 -125q4 -4 4 -6l-10 -11l-107 -106q3 -3 5.5 -6.5t6 -8.5t5.5 -8q110 -153 110 -385q0 -192 -78 -342q-88 -171 -253.5 -274 t-354.5 -105h-8q-228 0 -418 144l-123 -123q-4 -4 -6 -4l-133 133l4 8l125 125q-49 65 -78 133q-57 132 -57 289zM293 680q0 -100 35 -193q10 -28 41 -81l686 684q-53 41 -109 59q-85 31 -174 31q-100 0 -191 -38t-157 -110q-64 -69 -97.5 -161.5t-33.5 -190.5zM502 266 q80 -59 174 -78q39 -8 88 -8q187 0 336 133q74 67 113.5 165t39.5 204q0 110 -36 201q-12 35 -33 65z" />
<glyph unicode="&#xd9;" horiz-adv-x="1488" d="M123 582v761q0 9 8 9h178q6 0 6 -6v-762q0 -169 120.5 -289.5t287.5 -120.5q169 0 289.5 120.5t120.5 289.5v759q0 9 8 9h178q6 0 6 -6v-764q0 -122 -47.5 -233.5t-128.5 -191.5t-192.5 -127.5t-233.5 -47.5t-233.5 47.5t-191.5 127.5t-127.5 191.5t-47.5 233.5z M502 1567v170l379 -201v-166z" />
<glyph unicode="&#xda;" horiz-adv-x="1488" d="M123 582v761q0 9 8 9h178q6 0 6 -6v-762q0 -169 120.5 -289.5t287.5 -120.5q169 0 289.5 120.5t120.5 289.5v759q0 9 8 9h178q6 0 6 -6v-764q0 -122 -47.5 -233.5t-128.5 -191.5t-192.5 -127.5t-233.5 -47.5t-233.5 47.5t-191.5 127.5t-127.5 191.5t-47.5 233.5z M637 1423v166l377 201v-170z" />
<glyph unicode="&#xdb;" horiz-adv-x="1488" d="M123 582v761q0 9 8 9h178q6 0 6 -6v-762q0 -169 120.5 -289.5t287.5 -120.5q169 0 289.5 120.5t120.5 289.5v759q0 9 8 9h178q6 0 6 -6v-764q0 -122 -47.5 -233.5t-128.5 -191.5t-192.5 -127.5t-233.5 -47.5t-233.5 47.5t-191.5 127.5t-127.5 191.5t-47.5 233.5z M399 1421l349 369l1 -1l3 -5l344 -363h-230l-118 127l-121 -127h-228z" />
<glyph unicode="&#xdc;" horiz-adv-x="1488" d="M123 582v761q0 9 8 9h178q6 0 6 -6v-762q0 -169 120.5 -289.5t287.5 -120.5q169 0 289.5 120.5t120.5 289.5v759q0 9 8 9h178q6 0 6 -6v-764q0 -122 -47.5 -233.5t-128.5 -191.5t-192.5 -127.5t-233.5 -47.5t-233.5 47.5t-191.5 127.5t-127.5 191.5t-47.5 233.5z M348 1516q129 129 131 129q1 0 6 -5l117 -118v-9l-121 -122h-10zM889 1511v7l123 122q2 5 6 5q1 0 6 -5l123 -122l-129 -127h-10z" />
<glyph unicode="&#xdd;" horiz-adv-x="1181" d="M0 1337q0 5 12 13h219l13 -4q53 -67 110.5 -143t127.5 -170t108 -144h8q28 37 83 110.5t89 119t82 107.5t90 113q10 13 16 13q2 0 5.5 -1t5.5 -1h207q6 0 6 -7l-8 -14l-484 -633v-698h-192v698q-357 468 -498 641zM616 1376v166l377 199v-170z" />
<glyph unicode="&#xde;" horiz-adv-x="1099" d="M143 8v1335q0 9 9 9h178q6 0 6 -6l2 -242h307q164 0 279 -133q94 -110 94 -283q0 -106 -37 -190q-53 -117 -163 -165.5t-267 -53.5q-8 0 -36 -1.5t-46 -1.5l-129 3l-2 -7v-272l-6 -2h-182q-7 0 -7 10zM336 911l2 -440h205q194 16 250 111q22 46 22 94q0 72 -41 139 q-53 87 -215 94z" />
<glyph unicode="&#xdf;" horiz-adv-x="1216" d="M143 -121v971q0 94 13.5 162.5t55.5 131t114 99.5q94 49 219 49q63 0 129 -16q63 -17 139 -72q46 -35 71 -87.5t25 -110.5q0 -32 -10 -74q-35 -115 -209 -178q-29 -11 -55.5 -35.5t-26.5 -50.5q0 -14 8 -25q29 -41 79.5 -58t121 -24.5t103.5 -17.5q87 -27 155 -85 t78 -139q2 -14 2 -40q0 -82 -38 -150.5t-109 -101.5q-103 -47 -242 -47q-187 0 -332 77l-6 209l135 -53q122 -49 234 -49q35 0 51 2q73 7 102 67q6 12 6 23q0 25 -20 49q-33 37 -80.5 54.5t-113.5 27t-97 19.5q-78 23 -139.5 69t-81.5 111q-10 38 -10 73q0 93 43 142 q21 24 54 42t62 28.5t66 41t68 78.5q8 16 8 25q0 17 -12.5 33.5t-30.5 25.5q-49 25 -109 25q-80 0 -149 -37q-36 -19 -54 -57t-21 -70.5t-3 -91.5v-965l-6 -6h-183z" />
<glyph unicode="&#xe0;" horiz-adv-x="897" d="M61 250q0 71 41 132t107 101q78 49 172.5 70.5t216.5 28.5q2 20 2 51q0 38 -16 59q-57 84 -174 84q-34 0 -76 -10q-36 -9 -73 -25.5t-86.5 -44.5t-68.5 -37q31 96 84 213q117 52 244 52q147 0 236 -72q52 -39 92 -117q33 -67 33 -190v-537q0 -8 -9 -8h-176q-8 0 -8 6v55 l-51 -36q-92 -52 -199 -52q-72 0 -131 27q-70 41 -115 106.5t-45 143.5zM240 1208v172l376 -200v-166zM252 244q0 -44 41 -70q45 -29 98 -29q25 0 57.5 7t48.5 12t58.5 21.5t46.5 17.5v235q-22 -4 -73 -11.5t-80.5 -13t-69 -19t-68.5 -32.5q-59 -40 -59 -118z" />
<glyph unicode="&#xe1;" horiz-adv-x="897" d="M61 250q0 71 41 132t107 101q78 49 172.5 70.5t216.5 28.5q2 20 2 51q0 38 -16 59q-57 84 -174 84q-34 0 -76 -10q-36 -9 -73 -25.5t-86.5 -44.5t-68.5 -37q31 96 84 213q117 52 244 52q147 0 236 -72q52 -39 92 -117q33 -67 33 -190v-537q0 -8 -9 -8h-176q-8 0 -8 6v55 l-51 -36q-92 -52 -199 -52q-72 0 -131 27q-70 41 -115 106.5t-45 143.5zM252 244q0 -44 41 -70q45 -29 98 -29q25 0 57.5 7t48.5 12t58.5 21.5t46.5 17.5v235q-22 -4 -73 -11.5t-80.5 -13t-69 -19t-68.5 -32.5q-59 -40 -59 -118zM295 993v166l379 201v-170z" />
<glyph unicode="&#xe2;" horiz-adv-x="897" d="M61 250q0 71 41 132t107 101q78 49 172.5 70.5t216.5 28.5q2 20 2 51q0 38 -16 59q-57 84 -174 84q-34 0 -76 -10q-36 -9 -73 -25.5t-86.5 -44.5t-68.5 -37q31 96 84 213q117 52 244 52q147 0 236 -72q52 -39 92 -117q33 -67 33 -190v-537q0 -8 -9 -8h-176q-8 0 -8 6v55 l-51 -36q-92 -52 -199 -52q-72 0 -131 27q-70 41 -115 106.5t-45 143.5zM98 1001l334 363l334 -363h-207l-127 140l-129 -140h-205zM252 244q0 -44 41 -70q45 -29 98 -29q25 0 57.5 7t48.5 12t58.5 21.5t46.5 17.5v235q-22 -4 -73 -11.5t-80.5 -13t-69 -19t-68.5 -32.5 q-59 -40 -59 -118z" />
<glyph unicode="&#xe3;" horiz-adv-x="897" d="M47 1049q35 93 115 157q60 47 143 47q44 0 105 -14q14 -4 35 -12t42 -17t25 -10q82 -29 133 -29q67 0 123 48q3 6 8 6q2 0 4 -1.5t3 -2.5t1 0q-36 -95 -114 -158q-63 -49 -146 -49q-53 0 -118 20q-3 2 -39.5 16.5t-44.5 18.5q-91 27 -134 27q-72 0 -127 -47q-3 -7 -6 -7 q-2 0 -4.5 3.5t-3.5 3.5zM61 250q0 71 41 132t107 101q78 49 172.5 70.5t216.5 28.5q2 20 2 51q0 38 -16 59q-57 84 -174 84q-34 0 -76 -10q-36 -9 -73 -25.5t-86.5 -44.5t-68.5 -37q31 96 84 213q117 52 244 52q147 0 236 -72q52 -39 92 -117q33 -67 33 -190v-537 q0 -8 -9 -8h-176q-8 0 -8 6v55l-51 -36q-92 -52 -199 -52q-72 0 -131 27q-70 41 -115 106.5t-45 143.5zM252 244q0 -44 41 -70q45 -29 98 -29q25 0 57.5 7t48.5 12t58.5 21.5t46.5 17.5v235q-22 -4 -73 -11.5t-80.5 -13t-69 -19t-68.5 -32.5q-59 -40 -59 -118z" />
<glyph unicode="&#xe4;" horiz-adv-x="897" d="M61 250q0 71 41 132t107 101q78 49 172.5 70.5t216.5 28.5q2 20 2 51q0 38 -16 59q-57 84 -174 84q-34 0 -76 -10q-36 -9 -73 -25.5t-86.5 -44.5t-68.5 -37q31 96 84 213q117 52 244 52q147 0 236 -72q52 -39 92 -117q33 -67 33 -190v-537q0 -8 -9 -8h-176q-8 0 -8 6v55 l-51 -36q-92 -52 -199 -52q-72 0 -131 27q-70 41 -115 106.5t-45 143.5zM125 1130q125 125 127 125q4 0 8 -4l117 -116v-11l-123 -120h-10q-111 112 -117 116q-2 2 -2 10zM252 244q0 -44 41 -70q45 -29 98 -29q25 0 57.5 7t48.5 12t58.5 21.5t46.5 17.5v235 q-22 -4 -73 -11.5t-80.5 -13t-69 -19t-68.5 -32.5q-59 -40 -59 -118zM541 1130q125 125 127 125t6 -4l117 -116v-11q-20 -18 -121 -120h-11q-110 112 -116 116q-2 2 -2 10z" />
<glyph unicode="&#xe5;" horiz-adv-x="897" d="M61 250q0 71 41 132t107 101q78 49 172.5 70.5t216.5 28.5q2 20 2 51q0 38 -16 59q-57 84 -174 84q-34 0 -76 -10q-36 -9 -73 -25.5t-86.5 -44.5t-68.5 -37q31 96 84 213q117 52 244 52q147 0 236 -72q52 -39 92 -117q33 -67 33 -190v-537q0 -8 -9 -8h-176q-8 0 -8 6v55 l-51 -36q-92 -52 -199 -52q-72 0 -131 27q-70 41 -115 106.5t-45 143.5zM248 1178q0 74 52.5 127t127.5 53t127.5 -53t52.5 -127q0 -75 -52.5 -129t-127.5 -54t-127.5 54t-52.5 129zM252 244q0 -44 41 -70q45 -29 98 -29q25 0 57.5 7t48.5 12t58.5 21.5t46.5 17.5v235 q-22 -4 -73 -11.5t-80.5 -13t-69 -19t-68.5 -32.5q-59 -40 -59 -118zM350 1178q0 -32 23 -56t55 -24t55 24t23 56t-23 54.5t-55 22.5t-55 -22.5t-23 -54.5z" />
<glyph unicode="&#xe6;" horiz-adv-x="1474" d="M43 250q0 71 40.5 132t106.5 101q78 49 173 70.5t217 28.5q2 20 2 51q0 37 -17 59q-60 84 -176 84q-32 0 -74 -10q-36 -9 -72.5 -26t-85.5 -44t-69 -37q31 96 84 213q117 52 244 52q146 0 235 -72q39 -27 62 -66q80 83 172 111q77 23 145 23q95 0 179 -38.5t137 -115.5 q86 -127 86 -315v-27l-17 -12q-47 -2 -328 -2q-276 0 -311 2v-68q11 -33 33 -65q71 -115 258 -115q26 0 76 4q47 5 99.5 27.5t86 43.5t88.5 60l10 -2v-193q-77 -54 -180.5 -84t-208.5 -30q-128 0 -213 43q-21 10 -49 28v-53q0 -8 -8 -8h-176q-8 0 -8 6v55l-52 -36 q-92 -52 -198 -52q-72 0 -131 27q-70 40 -114.5 106t-45.5 144zM233 244q0 -44 41 -70q45 -29 97 -29q33 0 67.5 8t85.5 26.5t60 21.5v237q-22 -4 -73 -11.5t-80.5 -13t-69 -19t-68.5 -32.5q-57 -38 -60 -118zM776 565h459q0 42 -36.5 87t-74.5 67q-56 29 -112 29 q-82 0 -150 -46q-38 -26 -61 -65t-25 -72z" />
<glyph unicode="&#xe7;" horiz-adv-x="960" d="M82 446q0 43 4 66q16 123 85 227.5t181 151.5q96 41 223 41q159 0 293 -64l6 -10q0 -137 -2 -221q-9 5 -49 30t-61 35q-84 43 -189 43q-118 0 -184 -61q-104 -91 -104 -227q0 -25 2 -43q13 -87 84.5 -157t158.5 -85q18 -4 54 -4q74 0 138 31t144 90l11 4v-113 q0 -77 2 -112q-107 -68 -240 -80q2 -39 2 -113q-1 -81 -52.5 -140.5t-133.5 -90.5q-55 -21 -121 -21q-38 0 -72 6q-10 5 -12 11q0 20 -1 55t-1 53q0 8 1 27.5t1 31.5q10 -1 47 -8.5t57 -7.5q13 0 25 4q72 22 72 131q0 12 -5 70q-75 19 -129 51q-112 67 -173.5 172t-61.5 227 z" />
<glyph unicode="&#xe8;" horiz-adv-x="1024" d="M82 453q0 33 2 49q15 129 102 242.5t209 152.5q77 23 146 23q95 0 178 -38.5t137 -115.5q86 -127 86 -313v-29l-16 -14q-8 0 -67.5 -1t-104.5 -1q-429 0 -475 4v-21q0 -46 40 -112q71 -115 259 -115q25 0 75 4q68 7 132.5 40.5t142.5 90.5l10 -2v-195 q-77 -55 -179.5 -84.5t-205.5 -29.5q-128 0 -217 45q-108 54 -181 171t-73 249zM287 565h458q0 40 -35.5 86t-72.5 68q-51 26 -115 26q-82 0 -149 -45q-38 -26 -61 -65t-25 -70zM342 1208v172l379 -200v-166z" />
<glyph unicode="&#xe9;" horiz-adv-x="1024" d="M82 453q0 33 2 49q15 129 102 242.5t209 152.5q77 23 146 23q95 0 178 -38.5t137 -115.5q86 -127 86 -313v-29l-16 -14q-8 0 -67.5 -1t-104.5 -1q-429 0 -475 4v-21q0 -46 40 -112q71 -115 259 -115q25 0 75 4q68 7 132.5 40.5t142.5 90.5l10 -2v-195 q-77 -55 -179.5 -84.5t-205.5 -29.5q-128 0 -217 45q-108 54 -181 171t-73 249zM287 565h458q0 40 -35.5 86t-72.5 68q-51 26 -115 26q-82 0 -149 -45q-38 -26 -61 -65t-25 -70zM403 995v166l379 201v-170z" />
<glyph unicode="&#xea;" horiz-adv-x="1024" d="M82 453q0 33 2 49q15 129 102 242.5t209 152.5q77 23 146 23q95 0 178 -38.5t137 -115.5q86 -127 86 -313v-29l-16 -14q-8 0 -67.5 -1t-104.5 -1q-429 0 -475 4v-21q0 -46 40 -112q71 -115 259 -115q25 0 75 4q68 7 132.5 40.5t142.5 90.5l10 -2v-195 q-77 -55 -179.5 -84.5t-205.5 -29.5q-128 0 -217 45q-108 54 -181 171t-73 249zM186 1001l334 363l336 -363h-207l-129 140l-127 -140h-207zM287 565h458q0 40 -35.5 86t-72.5 68q-51 26 -115 26q-82 0 -149 -45q-38 -26 -61 -65t-25 -70z" />
<glyph unicode="&#xeb;" horiz-adv-x="1024" d="M82 453q0 33 2 49q15 129 102 242.5t209 152.5q77 23 146 23q95 0 178 -38.5t137 -115.5q86 -127 86 -313v-29l-16 -14q-8 0 -67.5 -1t-104.5 -1q-429 0 -475 4v-21q0 -46 40 -112q71 -115 259 -115q25 0 75 4q68 7 132.5 40.5t142.5 90.5l10 -2v-195 q-77 -55 -179.5 -84.5t-205.5 -29.5q-128 0 -217 45q-108 54 -181 171t-73 249zM195 1124l122 123q3 4 7 4q2 0 6 -4l116 -119v-8l-120 -123h-11q-28 29 -104 105q-1 1 -6.5 5t-7.5 8t-2 9zM287 565h458q0 40 -35.5 86t-72.5 68q-51 26 -115 26q-82 0 -149 -45 q-38 -26 -61 -65t-25 -70zM610 1124q125 125 127 125q4 0 6 -2l117 -119v-8l-121 -123h-10z" />
<glyph unicode="&#xec;" horiz-adv-x="458" d="M47 1147v170l377 -199v-168zM133 8v895l8 4h178l9 -6v-7q0 -8 0.5 -21.5t1 -30.5t0.5 -41v-49q0 -107 -1 -364t-1 -320v-62q-2 -6 -6 -6h-181q-8 4 -8 8z" />
<glyph unicode="&#xed;" horiz-adv-x="458" d="M70 973v166l379 200v-170zM133 8v895l8 4h178l9 -6v-7q0 -8 0.5 -21.5t1 -30.5t0.5 -41v-49q0 -107 -1 -364t-1 -320v-62q-2 -6 -6 -6h-181q-8 4 -8 8z" />
<glyph unicode="&#xee;" horiz-adv-x="497" d="M-14 1008l264 286l264 -286h-164l-100 110l-103 -110h-161zM154 8v895l8 4h178l8 -6v-7q0 -8 0.5 -21.5t1 -30.5t0.5 -41v-49q0 -107 -1 -364t-1 -320v-62q-2 -6 -6 -6h-180q-8 4 -8 8z" />
<glyph unicode="&#xef;" horiz-adv-x="665" d="M-2 1122q127 127 129 127q4 0 6 -2l117 -119v-8l-121 -123h-10zM236 8v895l8 4h178l8 -6v-55q0 -56 -1 -311t-1 -367q0 -156 2 -162q-2 -6 -8 -6h-178q-8 4 -8 8zM414 1124l123 123q2 4 6 4q2 0 6 -4l117 -119v-8l-121 -123h-10q-25 26 -47 48t-38.5 38t-19.5 19 q-1 1 -6.5 5t-7.5 8t-2 9z" />
<glyph unicode="&#xf0;" horiz-adv-x="1021" d="M61 391q0 174 125 305q61 61 144 94t170 33q89 0 170 -35l8 7q-42 104 -117 215l-248 -127v168l156 79q-79 96 -193 207q-4 2 -4 9l2 6q23 2 68 2q23 0 71 -1t72 -1q85 -64 148 -135l260 135v-170l-164 -86q43 -63 117 -195q94 -180 94 -393q0 -245 -133 -389 q-66 -69 -153 -107.5t-179 -38.5q-65 0 -129 21q-106 36 -186.5 130.5t-93.5 203.5q-5 50 -5 63zM262 397q0 -55 21 -98q20 -43 60.5 -77t84.5 -46q24 -8 57 -8q85 0 164 72q86 80 86 221q0 51 -8 92q-100 84 -223 84q-128 0 -199 -98q-43 -58 -43 -142z" />
<glyph unicode="&#xf1;" horiz-adv-x="1064" d="M133 8v893l4 6h176q9 -6 9 -20q0 -2 -1.5 -8t-1.5 -9t3 -6q19 2 46.5 17.5t39.5 19.5q93 27 174 27q131 0 237 -58t150 -172q26 -73 32 -159q7 -100 7 -179q0 -61 -3.5 -182t-3.5 -178h-196q0 381 -2 553q-9 63 -60.5 117.5t-115.5 72.5q-45 5 -52 5q-106 0 -241 -64 l-12 -10v-666q-1 -8 -7 -8h-176q-6 2 -6 8zM168 1085q37 99 115 158q60 47 143 47q43 0 104 -14q14 -4 35 -12t42.5 -17t25.5 -10q82 -29 137 -29q72 0 127 47l4 7q1 0 3 -2.5t3 -2.5q-40 -98 -116 -157q-60 -47 -144 -47q-53 0 -121 20l-84 33q-79 29 -141 29 q-70 0 -123 -45z" />
<glyph unicode="&#xf2;" horiz-adv-x="1120" d="M102 446q0 123 54 229t159 173q122 78 281 78q111 0 201 -43q63 -29 123 -87t94 -122q45 -89 45 -205q0 -182 -101 -307q-72 -91 -172.5 -138t-212.5 -47q-74 0 -157 25q-108 32 -194.5 127.5t-108.5 206.5q-11 51 -11 110zM293 446q0 -84 41 -145q42 -66 105.5 -103.5 t135.5 -37.5q27 0 54 6q63 10 119.5 52t87.5 99q30 59 30 136q0 87 -39 149q-41 70 -109.5 107t-152.5 39q-127 0 -213 -117q-59 -77 -59 -185zM369 1229v172l376 -201v-166z" />
<glyph unicode="&#xf3;" horiz-adv-x="1120" d="M82 446q0 123 54 229t159 173q122 78 280 78q111 0 201 -43q63 -29 123 -87t94 -122q45 -89 45 -205q0 -183 -100 -307q-72 -91 -172.5 -138t-212.5 -47q-75 0 -158 25q-108 32 -194.5 127.5t-108.5 206.5q-10 46 -10 110zM272 446q0 -84 41 -145q42 -65 105.5 -103 t136.5 -38q26 0 53 6q63 10 119.5 52t87.5 99q31 60 31 136q0 87 -39 149q-41 70 -109.5 107t-152.5 39q-127 0 -213 -117q-60 -78 -60 -185zM465 991v168l379 199v-170z" />
<glyph unicode="&#xf4;" horiz-adv-x="1120" d="M102 446q0 123 54 229t159 173q122 78 281 78q111 0 201 -43q63 -29 123 -87t94 -122q45 -89 45 -205q0 -182 -101 -307q-72 -91 -172.5 -138t-212.5 -47q-74 0 -157 25q-108 32 -194.5 127.5t-108.5 206.5q-11 51 -11 110zM242 1001l333 363l334 -363h-207l-127 140 l-129 -140h-204zM293 446q0 -84 41 -145q42 -66 105.5 -103.5t135.5 -37.5q27 0 54 6q63 10 119.5 52t87.5 99q30 59 30 136q0 87 -39 149q-41 70 -109.5 107t-152.5 39q-127 0 -213 -117q-59 -77 -59 -185z" />
<glyph unicode="&#xf5;" horiz-adv-x="1120" d="M102 446q0 123 54 229t159 173q122 78 281 78q111 0 201 -43q63 -29 123 -87t94 -122q45 -89 45 -205q0 -182 -101 -307q-72 -91 -172.5 -138t-212.5 -47q-74 0 -157 25q-108 32 -194.5 127.5t-108.5 206.5q-11 51 -11 110zM227 1077q37 98 115 158q60 47 145 47 q55 0 101 -14q38 -11 102 -39q85 -29 133 -29q70 0 125 47q3 6 6 6q2 0 6 -2t5 -2q-37 -97 -115 -157q-64 -50 -145 -50q-51 0 -119 21q-3 2 -40 16.5t-46 18.5q-84 26 -133 26q-72 0 -127 -47q-3 -6 -7 -6q-3 1 -6 6zM293 446q0 -84 41 -145q42 -66 105.5 -103.5 t135.5 -37.5q27 0 54 6q63 10 119.5 52t87.5 99q30 59 30 136q0 87 -39 149q-41 70 -109.5 107t-152.5 39q-127 0 -213 -117q-59 -77 -59 -185z" />
<glyph unicode="&#xf6;" horiz-adv-x="1144" d="M102 446q0 123 54 229t159 173q122 78 281 78q111 0 201 -43q63 -29 123 -87t94 -122q45 -89 45 -205q0 -182 -101 -307q-72 -91 -172.5 -138t-212.5 -47q-74 0 -157 25q-108 32 -194.5 127.5t-108.5 206.5q-11 51 -11 110zM244 1124q125 125 127 125t6 -4l117 -117v-10 l-121 -121h-11q-110 113 -116 117q-2 2 -2 10zM293 446q0 -84 41 -145q42 -66 105.5 -103.5t135.5 -37.5q27 0 54 6q63 10 119.5 52t87.5 99q30 59 30 136q0 87 -39 149q-41 70 -109.5 107t-152.5 39q-127 0 -213 -117q-59 -77 -59 -185zM657 1124q125 125 127 125q5 0 9 -4 l116 -117v-10l-121 -121h-12q-111 113 -117 117q-2 2 -2 10z" />
<glyph unicode="&#xf7;" d="M82 608v176l6 9h614l9 -7v-180l-4 -8h-615q-10 0 -10 10zM270 354v8q125 125 127 125q5 0 9 -4q114 -114 114 -121q0 -1 1 -3t1 -3q-17 -16 -37.5 -36.5t-46 -46.5t-39.5 -40h-10zM281 1030v8q125 125 127 125q4 0 8 -4l116 -117v-10q-31 -29 -120 -123h-11 q-114 117 -120 121z" />
<glyph unicode="&#xf8;" horiz-adv-x="1089" d="M37 109l100 100q-69 110 -69 248q0 96 37.5 184t101.5 151t151.5 100.5t184.5 37.5q131 0 245 -68q56 55 99 98q15 15 16 15q2 0 6 -4l129 -129q0 -2 -4 -6l-104 -105q86 -122 86 -274q0 -97 -37.5 -184.5t-100.5 -151.5t-151 -101.5t-184 -37.5q-150 0 -275 88l-92 -93 q-4 -4 -6 -4zM262 457q0 -54 19 -103l364 363q-47 20 -102 20q-117 0 -199 -82t-82 -198zM408 209q68 -33 135 -33q117 0 198.5 82t81.5 199q0 74 -35 133z" />
<glyph unicode="&#xf9;" horiz-adv-x="1087" d="M102 309v598h187l6 -14v-563q13 -63 66 -108.5t122 -57.5q32 -4 47 -4q130 0 240 96v147t-0.5 169.5t-1 156t-0.5 121v49.5q0 4 2.5 6t5.5 2h2h178q9 -4 9 -10v-891q-2 -6 -7 -6h-182q-2 0 -4 6v43q-117 -69 -264 -69q-92 0 -172 30q-94 37 -164 121.5t-70 177.5z M270 1184v172l379 -201v-166z" />
<glyph unicode="&#xfa;" horiz-adv-x="1087" d="M102 309v598h187l6 -14v-563q13 -63 66 -108.5t122 -57.5q32 -4 47 -4q130 0 240 96v147t-0.5 169.5t-1 156t-0.5 121v49.5q0 4 2.5 6t5.5 2h2h178q9 -4 9 -10v-891q-2 -6 -7 -6h-182q-2 0 -4 6v43q-117 -69 -264 -69q-92 0 -172 30q-94 37 -164 121.5t-70 177.5z M440 993v166l379 201v-170z" />
<glyph unicode="&#xfb;" horiz-adv-x="1087" d="M102 309v598h187l6 -14v-563q13 -63 66 -108.5t122 -57.5q32 -4 47 -4q130 0 240 96v147t-0.5 169.5t-1 156t-0.5 121v49.5q0 4 2.5 6t5.5 2h2h178q7 -4 9 -10l-2 -891q0 -6 -7 -6h-180q-2 0 -4 6v43q-117 -69 -264 -69q-92 0 -172 30q-94 37 -164 121.5t-70 177.5z M199 1001l333 363l336 -363h-209l-127 140l-126 -140h-207z" />
<glyph unicode="&#xfc;" horiz-adv-x="1087" d="M102 309v598h187l6 -14v-563q13 -63 66 -108.5t122 -57.5q32 -4 47 -4q130 0 240 96v147t-0.5 169.5t-1 156t-0.5 121v49.5q0 4 2.5 6t5.5 2h2h178q9 -4 9 -10v-891q-2 -6 -7 -6h-182q-2 0 -4 6v43q-117 -69 -264 -69q-92 0 -172 30q-94 37 -164 121.5t-70 177.5z M197 1122l129 125q2 4 6 4q2 0 6 -4l123 -123l-129 -127h-10zM612 1122l127 125q2 4 6 4q3 0 7 -4l116 -119v-8l-120 -123h-11z" />
<glyph unicode="&#xfd;" horiz-adv-x="1062" d="M20 907h191q21 0 31 -16l282 -576l15 7q293 548 307 577q3 8 14 8h203q-420 -765 -596 -1118q-56 -113 -162 -181.5t-227 -68.5h-15l-8 8v162h17q130 0 186 90q9 15 34 54.5t36.5 59.5t30 52t31 61.5t22.5 59.5l10 29zM537 983v166l376 201v-170z" />
<glyph unicode="&#xfe;" horiz-adv-x="1126" d="M123 -434v1782l8 8h176q8 0 8 -8v-508q5 3 20 12.5t21.5 13.5t20 11.5t22.5 11.5t20.5 8.5t22.5 7.5q61 17 131 17q113 0 214.5 -51t173.5 -144q83 -108 83 -276q0 -149 -67 -256t-177.5 -163.5t-238.5 -56.5q-42 0 -110 11q-26 4 -68 23.5t-61 25.5q-1 0 -3.5 1t-3.5 1 v-473l-6 -8h-178zM315 254q136 -88 250 -88q37 0 70 8q73 15 131 76.5t76 134.5q6 27 6 59q0 91 -47 156q-46 69 -123 107q-56 24 -115 24q-130 0 -248 -102v-375z" />
<glyph unicode="&#xff;" horiz-adv-x="1062" d="M20 907h191q21 0 31 -16l282 -576l15 7q293 548 307 577q3 8 14 8h203q-420 -765 -596 -1118q-56 -113 -162 -181.5t-227 -68.5h-15l-8 8v162h17q130 0 186 90q9 15 34 54.5t36.5 59.5t30 52t31 61.5t22.5 59.5l10 29zM197 1122l129 125q2 4 6 4q2 0 6 -4l123 -123 l-129 -127h-10zM612 1122l127 125q2 4 6 4q3 0 7 -4l116 -119v-8l-120 -123h-11z" />
<glyph unicode="&#x152;" horiz-adv-x="2086" d="M82 676q0 133 43.5 257.5t128.5 219.5q103 117 239.5 176.5t290.5 59.5q57 0 119 -9q58 -9 115 -30h946q8 0 8 -7v-178q0 -8 -8 -8h-674q49 -62 62 -80q73 -104 98 -246h346q6 0 6 -6v-178q0 -8 -10 -8h-332q-9 -158 -76 -289q-50 -95 -112 -160h727q6 0 6 -6v-178 q0 -8 -8 -8h-1036q-100 -27 -191 -27q-203 0 -377.5 114.5t-253.5 301.5q-57 132 -57 289zM293 680q0 -100 35 -193q40 -108 138.5 -192.5t209.5 -106.5q39 -8 88 -8q187 0 336 133q74 67 113.5 165t39.5 204q0 110 -36 201q-32 87 -108 161t-163 105q-85 31 -174 31 q-100 0 -191 -38t-157 -110q-64 -69 -97.5 -161.5t-33.5 -190.5z" />
<glyph unicode="&#x153;" horiz-adv-x="1779" d="M82 438q0 123 54 229t159 173q122 78 280 78q108 0 201 -41q90 -43 166 -136q88 112 209 152q84 25 147 25q94 0 178 -39.5t138 -116.5q84 -128 84 -313v-29l-15 -12q-9 0 -79 -1t-123 -1q-80 0 -184 0.5t-178.5 1t-82.5 0.5v-17q0 -49 39 -117q71 -114 258 -114 q28 0 78 4q66 8 129.5 42t142.5 91l11 -4v-193q-77 -55 -179.5 -84.5t-205.5 -29.5q-128 0 -217 45q-80 39 -154 123q-72 -91 -172 -138t-211 -47q-77 0 -160 25q-108 32 -194.5 127.5t-108.5 206.5q-10 46 -10 110zM272 438q0 -84 41 -145q42 -65 105.5 -103t136.5 -38 q26 0 53 6q63 10 119.5 52t87.5 99q31 60 31 135q0 88 -39 150q-41 69 -109 106t-153 39q-128 0 -213 -116q-60 -78 -60 -185zM1042 563h459q0 41 -36 86.5t-72 65.5q-54 28 -113 28q-85 0 -152 -45q-38 -26 -61 -65t-25 -70z" />
<glyph unicode="&#x178;" horiz-adv-x="1181" d="M0 1337q0 5 12 13h219l13 -4q53 -67 110.5 -143t127.5 -170t108 -144h8q28 37 83 110.5t89 119t82 107.5t90 113q10 13 16 13q2 0 5.5 -1t5.5 -1h207q6 0 6 -11l-492 -643v-698h-192v698q-357 468 -498 641zM252 1538q125 125 127 125q4 0 8 -4q115 -115 115 -121 q0 -1 1 -3t1 -3l-123 -121h-10q-111 113 -117 117q-2 2 -2 10zM668 1538q125 125 127 125t6 -4l117 -117v-10l-121 -121h-11q-110 113 -116 117q-2 2 -2 10z" />
<glyph unicode="&#x2c6;" horiz-adv-x="806" d="M70 1001l333 363l334 -363h-207l-127 140l-129 -140h-204z" />
<glyph unicode="&#x2dc;" horiz-adv-x="821" d="M41 1049q35 93 115 157q60 47 143 47q43 0 104 -14q14 -4 35 -12t42.5 -17t25.5 -10q82 -29 131 -29q68 0 127 50q6 6 10 6q2 0 3.5 -3t2.5 -3q-41 -100 -116 -158q-60 -49 -146 -49q-54 0 -119 20l-84 35q-91 27 -135 27q-72 0 -125 -45q-6 -9 -8 -9t-3.5 3.5t-2.5 3.5z " />
<glyph unicode="&#x2000;" horiz-adv-x="918" />
<glyph unicode="&#x2001;" horiz-adv-x="1837" />
<glyph unicode="&#x2002;" horiz-adv-x="918" />
<glyph unicode="&#x2003;" horiz-adv-x="1837" />
<glyph unicode="&#x2004;" horiz-adv-x="612" />
<glyph unicode="&#x2005;" horiz-adv-x="459" />
<glyph unicode="&#x2006;" horiz-adv-x="306" />
<glyph unicode="&#x2007;" horiz-adv-x="306" />
<glyph unicode="&#x2008;" horiz-adv-x="229" />
<glyph unicode="&#x2009;" horiz-adv-x="367" />
<glyph unicode="&#x200a;" horiz-adv-x="102" />
<glyph unicode="&#x2010;" d="M82 365v176l6 6h614l9 -4v-183l-4 -6h-615q-10 0 -10 11z" />
<glyph unicode="&#x2011;" d="M82 365v176l6 6h614l9 -4v-183l-4 -6h-615q-10 0 -10 11z" />
<glyph unicode="&#x2012;" d="M82 365v176l6 6h614l9 -4v-183l-4 -6h-615q-10 0 -10 11z" />
<glyph unicode="&#x2013;" horiz-adv-x="917" d="M82 518v193l8 8h737l9 -6v-197l-7 -8h-737q-10 0 -10 10z" />
<glyph unicode="&#x2014;" horiz-adv-x="1513" d="M82 518v193l8 8h1333l9 -6v-197l-7 -8h-1333q-10 0 -10 10z" />
<glyph unicode="&#x2018;" horiz-adv-x="405" d="M45 887v223q0 64 32 117t91 86q69 39 182 39q10 -2 10 -6q-7 -6 -25.5 -15.5t-25.5 -15.5q-71 -60 -71 -178v-250h-193z" />
<glyph unicode="&#x2019;" horiz-adv-x="327" d="M8 893l6 8q5 3 12.5 8.5t27 22t34.5 33t27 38.5t12 41q0 31 -1 97.5t-1 101.5q0 16 1 50.5t1 52.5l4 6h188v-144q0 -89 -20 -152.5t-80 -103.5q-34 -23 -99 -42t-97 -19z" />
<glyph unicode="&#x201a;" horiz-adv-x="393" d="M20 -283q27 19 39.5 29t35 30.5t32.5 42.5t10 46v301l4 6h189v-35q0 -18 1 -56t1 -58q0 -85 -21 -147.5t-80 -102.5q-35 -23 -99.5 -42.5t-96.5 -19.5q-15 0 -15 6z" />
<glyph unicode="&#x201c;" horiz-adv-x="770" d="M61 899v178q5 76 29.5 130.5t83.5 88.5q77 56 184 56h19q-73 -34 -98 -99t-25 -161v-193h-193zM418 961v159q7 89 65 144q101 88 256 88h11q-47 -21 -84.5 -61t-47.5 -85q-8 -41 -8 -94v-151h-192z" />
<glyph unicode="&#x201d;" horiz-adv-x="729" d="M16 901q0 6 9 6q61 36 79.5 90.5t20.5 143.5l4 211h190v-168q-3 -80 -27.5 -138t-84.5 -98q-85 -54 -187 -57q0 1 -2 4.5t-2 5.5zM350 961q0 6 2 6q123 58 123 231v154q193 0 193 -2v-127q0 -87 -30 -140t-103 -88q-90 -41 -170 -41h-11q-4 0 -4 7z" />
<glyph unicode="&#x201e;" horiz-adv-x="733" d="M20 -285q66 36 88.5 98t22.5 152v207h193v-160q-5 -82 -30 -142.5t-85 -98.5q-73 -49 -189 -56zM356 -217q123 55 123 237v13q0 7 -1 27t-1 30l2 82h193v-119q0 -173 -135 -235q-76 -39 -162 -39z" />
<glyph unicode="&#x2022;" horiz-adv-x="1044" d="M242 457q0 116 81.5 198t198.5 82t199 -82t82 -198q0 -117 -82 -199t-199 -82t-198.5 82t-81.5 199z" />
<glyph unicode="&#x2026;" horiz-adv-x="962" d="M61 6v180q0 7 9 7h178q6 0 6 -7v-178q0 -8 -8 -8h-178q-7 0 -7 6zM385 6v180q0 7 8 7h178q7 0 7 -7v-178q0 -8 -9 -8h-176q-8 0 -8 6zM709 6v180q0 7 8 7h178q6 0 6 -7v-178q0 -8 -8 -8h-176q-8 0 -8 6z" />
<glyph unicode="&#x202f;" horiz-adv-x="367" />
<glyph unicode="&#x2039;" horiz-adv-x="548" d="M37 451q0 9 6 12l428 430q6 0 6 -6v-260l-176 -176l176 -179v-256q0 -8 -4 -8t-6 2l-420 422q-10 8 -10 19z" />
<glyph unicode="&#x203a;" horiz-adv-x="548" d="M78 18v258l178 177l-178 178v258l8 4l428 -428q4 -4 4 -10q0 -11 -10 -21l-420 -420q-4 -4 -6 -4q-4 0 -4 8z" />
<glyph unicode="&#x205f;" horiz-adv-x="459" />
<glyph unicode="&#x20ac;" horiz-adv-x="1560" d="M27 750q0 4 8 12l141 172h174q80 203 264 332q165 114 408 114q262 0 453 -125l12 -16v-197q-5 -8 -10 -8t-45 21q-90 56 -198.5 89.5t-215.5 33.5q-157 0 -281 -78q-105 -69 -159 -166h714l13 -6v-178q-5 -9 -9 -9h-786q-6 -37 -6 -73q0 -5 1 -15t1 -14h622l13 -6v-178 q-4 -9 -8 -9h-572q45 -84 122 -149t165 -96q83 -29 168 -29q116 0 228 47.5t237 130.5q2 -8 2 -22v-203q-96 -71 -219.5 -109.5t-253.5 -38.5q-174 0 -316 68q-123 59 -215 165t-137 236h-307q-6 3 -6 9t6 12l143 172h127q0 5 -1 15.5t-1 15.5q0 21 4 71h-272q-8 3 -8 9z " />
<glyph unicode="&#xe000;" horiz-adv-x="911" d="M0 0v911h911v-911h-911z" />
</font>
</defs>
</svg>
